<?xml version="1.0" encoding="utf-8"?>
<!-- Generator: Adobe Illustrator 27.9.0, SVG Export Plug-In . SVG Version: 6.00 Build 0)  -->
<svg version="1.1" id="Layer_1" xmlns="http://www.w3.org/2000/svg" xmlns:xlink="http://www.w3.org/1999/xlink" x="0px" y="0px"
	 viewBox="0 0 343.57 222.87" style="enable-background:new 0 0 343.57 222.87;" xml:space="preserve">
<style type="text/css">
	.st0{fill:#FFFFFF;}
</style>
<g>
	<path d="M120.84,93.57c0.29-6.69,0.48-12.38-3.59-18.11c-6.67-9.39-10.47-20.2-10.51-31.97c-0.08-25.08,25.55-42.29,48.78-32.82
		c0.66,0.27,1.3,0.58,1.92,0.86c11.04-13,19.97-13.19,30.68-0.55c9.1-3.74,18.31-3.92,27.55-0.2c16.84,6.78,25.23,23.65,21.07,42.4
		c-1.95,8.76-5.55,16.8-10.52,24.25c-3.73,5.59-4.21,8.05-3.07,15.32c6.66-3.39,13.24-7,20.03-10.14
		c9.13-4.22,18.4-8.17,27.67-12.07c7.41-3.11,15.29-2.48,23.07-2.36c8.27,0.14,16.55,0.4,24.82,0.41c1.11,0,2.59-0.94,3.26-1.89
		c3.17-4.51,8.09-6.55,13.12-5.15c5.07,1.41,8.39,5.87,8.41,11.63c0.05,16.32,0.04,32.64,0.01,48.96
		c-0.01,6.21-3.39,10.81-8.75,12.06c-5.74,1.34-10.51-1.06-13.54-6.82c-0.21-0.41-0.51-0.77-1.27-1.89
		c-4.09,3.83-8.25,7.24-11.8,11.19c-4.08,4.53-7.81,9.41-11.34,14.39c-4.66,6.58-10.65,11.27-18.12,14.16
		c-2.72,1.05-4.93,0.76-5.96-2.47c-2.71,2.36-5.19,4.82-7.98,6.86c-2.09,1.53-4.46,2.83-6.9,3.68c-6.51,2.28-8.83,0.26-7.97-7.18
		c-2.57,2.43-4.81,4.66-7.18,6.73c-1.8,1.57-3.68,3.11-5.71,4.36c-2.66,1.64-5.84,3.62-8.53,0.94c-1.66-1.66-1.99-4.66-2.81-6.79
		c-6.42,4-11.46,13.5-22.87,10.04c-9.82,10.23-20.01,20.84-30.53,31.78c-11.79-9.59-21.28-21.2-31.97-32.01
		c-4.62,2.81-8.82,0.83-12.7-1.97c-3.58-2.58-6.91-5.5-10.33-8.25c-0.13,1.86,0.15,3.92-0.5,5.63c-1,2.64-5.04,3.68-8.11,1.71
		c-4.2-2.7-8.03-5.99-11.92-9.15c-0.88-0.71-1.35-1.92-2.16-3.12c-0.66,1.07-0.86,1.24-0.86,1.41c0.02,6.5-2.16,8.46-8.05,5.77
		c-5.34-2.43-10.05-6.24-15.16-9.51c-1.39,3.16-4.23,2.27-7.14,0.99c-7.09-3.11-12.57-7.99-17.24-14.23
		c-5.22-6.98-11.16-13.44-16.96-19.96c-1.62-1.82-3.89-3.06-6.09-4.74c-2.05,4.51-4.68,7.75-9.43,8.55
		c-7.3,1.23-13.55-3.72-13.6-11.13c-0.1-16.92-0.08-33.84-0.02-50.76c0.02-5.13,3.3-9.39,7.98-10.82c4.84-1.48,10.13,0.19,12.94,4.6
		c1.31,2.06,2.71,2.52,4.93,2.5c12.95-0.11,25.89-0.21,38.84-0.04c2.66,0.04,5.46,0.9,7.94,1.97
		C88.81,77.67,105.4,83.74,120.84,93.57z M171.52,209.06c0.94-0.79,1.53-1.21,2.03-1.71c15.79-15.91,31.32-32.07,44.89-49.97
		c8.25-10.87,12.77-23.04,11.33-36.87c-1.15-11.06-6.12-19.95-16.47-24.82c-10.17-4.79-19.99-2.45-29.02,3.25
		c-4.5,2.84-8.4,6.63-12.29,9.77c-4.74-3.57-9.35-7.63-14.51-10.78c-6.12-3.74-13.01-5.72-20.29-4.33
		c-12.81,2.43-21.43,11.94-23.24,25c-1.76,12.73,1.56,24.21,8.4,34.81c8.88,13.77,20.19,25.54,31.35,37.41
		C159.53,196.99,165.56,202.97,171.52,209.06z M320.5,71.92c-1.49-0.09-2.54-0.21-3.59-0.21c-11.15-0.05-22.3-0.22-33.45-0.04
		c-3.54,0.06-7.36,0.35-10.53,1.73c-15.02,6.56-29.87,13.49-44.73,20.42c-2.06,0.96-3.77,2.65-5.65,4c0.09,0.38,0.17,0.75,0.26,1.13
		c1.29,0.27,2.59,0.85,3.86,0.77c6.81-0.4,13.62-0.86,20.41-1.49c6.34-0.58,9.38,2.46,7.52,8.52c-1.32,4.29-3.19,8.61-5.71,12.31
		c-9.39,13.85-19.02,27.55-28.83,41.12c-4.54,6.29-9.69,12.15-15.29,19.11c2.24-0.13,3.84,0.21,4.97-0.37
		c2.86-1.46,5.95-2.9,8.15-5.13c7.47-7.58,14.72-15.39,21.79-23.34c4.6-5.17,8.74-10.74,13-16.02c2.67,1.01,2.52,2.2,1.15,3.87
		c-5.01,6.12-10.19,12.13-14.83,18.53c-3.49,4.81-6.33,10.1-9.25,15.3c-0.52,0.93-0.05,2.42-0.03,3.66c1.26-0.15,2.66,0,3.74-0.52
		c1.93-0.92,3.97-1.95,5.43-3.45c6.75-6.95,13.45-13.95,19.88-21.2c3.87-4.37,7.21-9.21,10.71-13.75c2.8,0.91,2.26,2.11,1.09,3.81
		c-5.56,8.08-11.07,16.2-16.41,24.42c-1.01,1.55-1.18,3.64-1.94,6.19c2.19-0.4,3.47-0.52,4.68-0.87c5.68-1.68,9.6-5.79,13.26-10.07
		c4.67-5.47,9.14-11.12,13.53-16.81c1.63-2.12,2.65-1.82,4.06,0.37c-3.5,4.51-7.05,8.87-10.3,13.46c-0.81,1.15-0.61,3.02-0.87,4.56
		c1.63-0.19,3.8,0.21,4.81-0.68c4.79-4.28,9.76-8.52,13.74-13.51c7.19-9.01,13.88-18.37,23.89-24.63c0.73-0.45,1.38-1.67,1.39-2.54
		C320.52,104.48,320.5,88.41,320.5,71.92z M138.08,178.56c-0.98-1.21-1.74-2.11-2.45-3.05c-5.92-7.83-11.88-15.62-17.71-23.51
		c-3.19-4.32-6.13-8.81-9.21-13.21c-5.43-7.75-11.1-15.34-16.2-23.31c-2-3.13-3.16-6.99-3.91-10.68c-0.85-4.22,1.58-6.61,5.85-6.62
		c1.19,0,2.38,0.27,3.57,0.35c6.45,0.43,12.89,0.91,19.35,1.19c1.14,0.05,2.33-0.76,4.39-1.49c-3.16-2.13-5.18-3.92-7.53-5
		C99.8,86.52,85.37,79.8,70.75,73.51c-3.39-1.46-7.46-1.77-11.24-1.84c-10.79-0.2-21.58-0.01-32.38,0.03c-1.26,0-2.53,0-3.95,0
		c0,16.77-0.02,32.97,0.05,49.17c0,0.77,0.59,1.84,1.23,2.25c10.27,6.52,17.13,16.22,24.54,25.52c3.89,4.89,9,8.83,13.75,12.98
		c0.84,0.73,2.63,0.38,3.97,0.52c-0.12-1.44,0.1-3.02-0.44-4.29c-0.64-1.5-1.9-2.74-2.92-4.06c-2.12-2.75-4.24-5.51-6.41-8.23
		c-1.6-2.02-1.05-3.13,1.44-3.66c3.16,3.97,6.13,8.05,9.48,11.8c4.37,4.9,8.87,9.72,13.66,14.21c2.4,2.26,5.62,3.51,9.86,2.86
		c-3.89-12.74-12.75-21.92-19.85-32.1c2.01-3,3.06-0.94,4.3,0.5c8.88,10.33,17.65,20.75,26.76,30.88c2.79,3.11,6.29,5.8,11.66,6.06
		c-0.49-2.37-0.45-4.54-1.36-6.17c-2.46-4.37-5.08-8.7-8.09-12.7c-4.83-6.41-10.01-12.57-15.1-18.78c-1.48-1.81-1.51-3.06,1.05-3.95
		c0.79,0.92,1.58,1.8,2.33,2.72c6.75,8.27,13.14,16.87,20.35,24.71c5.31,5.78,11.58,10.69,17.65,15.73
		C132.79,179.1,135.13,180.42,138.08,178.56z M170.52,77.98c0.07-0.89,0.16-1.58,0.16-2.27c0.02-13.55-0.51-27.12,0.23-40.63
		c0.42-7.62-2.44-12.53-8.18-16.56c-0.39-0.28-0.74-0.61-1.13-0.89c-19.38-14.39-47.41-3.46-51.3,20.3
		c-2.39,14.62,3.59,27.18,11.43,38.98c0.4,0.6,1.3,1.17,1.99,1.19c3.4,0.12,6.8,0.06,10.02,0.06c-2.96-6.52-6.14-12.54-8.44-18.89
		c-2.79-7.7-3.47-15.68,0.16-23.44c2.7-5.77,7.15-9.35,13.65-9.55c6.61-0.21,11.36,3.3,13.76,9.15c2.19,5.37,4.03,11.06,4.86,16.77
		c1.24,8.47,1.46,17.09,2.12,25.77C163.26,77.98,166.79,77.98,170.52,77.98z M184.84,78.02c0.38-7.12,0.53-13.82,1.16-20.48
		c0.81-8.6,2.05-17.17,7.04-24.59c5.67-8.43,16.66-9.04,23.31-1.34c3.62,4.19,4.96,9.22,5.02,14.64c0.11,10.32-3.9,19.34-9.03,27.98
		c-0.69,1.16-1.36,2.33-2.31,3.95c3.25,0,5.78-0.2,8.27,0.05c2.76,0.29,4.69-0.59,5.8-3.08c3.17-7.19,6.89-14.21,9.26-21.66
		c3.21-10.09,1.73-19.98-4.52-28.76c-12.83-18.02-38.64-18.11-53.2-0.18c-1.09,1.34-1.82,3.38-1.83,5.11
		c-0.14,15.11-0.09,30.21-0.07,45.32c0,1.03,0.13,2.05,0.2,3.05C177.72,78.02,181.17,78.02,184.84,78.02z M188.13,78.18
		c5.71,0,10.97,0.09,16.21-0.08c0.97-0.03,2.35-0.83,2.79-1.67c3.31-6.33,6.88-12.59,9.48-19.22c2.38-6.09,2.72-12.65,0.21-18.96
		c-2.05-5.16-5.74-8.75-11.48-8.93c-5.64-0.17-9.3,3.18-11.49,8.21c-0.48,1.09-0.98,2.19-1.34,3.32
		C188.63,52.85,188.01,65.2,188.13,78.18z M156.71,78.18c-0.39-7.04-0.49-13.5-1.16-19.9c-0.83-7.97-1.98-15.94-6.16-23.03
		c-2.84-4.82-7.7-6.86-12.8-5.5c-6.01,1.61-10.2,7.8-10.4,15.59c-0.31,11.97,5.03,21.93,11.43,31.47c0.45,0.67,1.51,1.29,2.3,1.31
		C145.28,78.23,150.64,78.18,156.71,78.18z M3.03,97.72c0,8.14-0.02,16.29,0.01,24.43c0.02,5.55,3.29,9.21,8.26,9.33
		c4.98,0.12,8.84-3.72,8.86-9.21c0.08-16.28,0.09-32.57,0.01-48.86c-0.03-5.52-3.91-9.31-8.93-9.14c-4.98,0.17-8.19,3.8-8.21,9.39
		C3.01,81.67,3.03,89.7,3.03,97.72z M219.59,81.54c-31.93,0-63.65,0-95.36,0c0,4.53,0,8.77,0,12.92c0.33,0.15,0.47,0.26,0.55,0.23
		c0.66-0.27,1.33-0.52,1.96-0.85c7.97-4.19,16.56-5.24,24.68-1.79c6.99,2.97,13.92,2.9,21.07,2.93c2.64,0.01,5.3,0.17,7.92-0.07
		c2.45-0.23,5.02-0.5,7.24-1.43c10.08-4.25,19.97-4.56,29.78,0.7c0.58,0.31,1.25,0.45,2.17,0.78
		C219.59,90.34,219.59,86.07,219.59,81.54z M340.43,97.77c0.01,0,0.01,0,0.02,0c0-7.92,0-15.84,0-23.75c0-5.86-3.2-9.64-8.23-9.75
		c-5.29-0.12-8.78,3.56-8.81,9.57c-0.06,16.08-0.07,32.15,0,48.23c0.02,5.79,3.48,9.41,8.63,9.38c5.12-0.02,8.35-3.65,8.38-9.57
		C340.46,113.85,340.43,105.81,340.43,97.77z M231.94,136.37c0.32,0.13,0.65,0.25,0.97,0.38c4.8-6.94,9.77-13.77,14.3-20.89
		c2.03-3.18,3.45-6.83,4.62-10.44c0.98-3.03-0.62-4.54-3.82-4.21c-1.66,0.17-3.31,0.51-4.98,0.67c-5.27,0.49-10.54,0.92-16.18,1.41
		C233.78,113.71,233.86,124.88,231.94,136.37z M116.47,103.3c-6.7-0.6-12.9-0.98-19.04-1.76c-5.76-0.74-7.21,0.65-5.16,6.1
		c4.17,11.13,11.81,20.03,19.18,29.17C109.28,125.1,109.95,113.92,116.47,103.3z M184.84,12.03c-3.21-4.38-7.1-7.7-13.06-7.05
		c-5.24,0.57-8.96,3.35-10.88,7.93c4.06,3.59,7.79,6.89,11.32,10.02C176.31,19.39,180.36,15.89,184.84,12.03z M171.93,104.81
		c2.3-2.08,4.55-4.1,7.14-6.44c-5.07,0-9.57,0-14.7,0C167.18,100.76,169.5,102.74,171.93,104.81z"/>
	<path class="st0" d="M320.5,71.92c0,16.5,0.02,32.57-0.06,48.63c0,0.87-0.66,2.08-1.39,2.54c-10,6.26-16.7,15.62-23.89,24.63
		c-3.98,4.99-8.95,9.23-13.74,13.51c-1,0.9-3.17,0.49-4.81,0.68c0.26-1.54,0.06-3.41,0.87-4.56c3.24-4.58,6.8-8.94,10.3-13.46
		c-1.42-2.2-2.43-2.49-4.06-0.37c-4.39,5.69-8.86,11.34-13.53,16.81c-3.66,4.28-7.58,8.4-13.26,10.07
		c-1.21,0.36-2.49,0.47-4.68,0.87c0.77-2.55,0.94-4.64,1.94-6.19c5.34-8.22,10.85-16.34,16.41-24.42c1.17-1.71,1.71-2.9-1.09-3.81
		c-3.51,4.54-6.84,9.38-10.71,13.75c-6.43,7.25-13.13,14.25-19.88,21.2c-1.46,1.5-3.5,2.53-5.43,3.45
		c-1.08,0.52-2.48,0.37-3.74,0.52c-0.01-1.23-0.49-2.73,0.03-3.66c2.92-5.19,5.76-10.49,9.25-15.3c4.64-6.4,9.82-12.41,14.83-18.53
		c1.37-1.67,1.52-2.87-1.15-3.87c-4.26,5.28-8.41,10.86-13,16.02c-7.07,7.95-14.33,15.76-21.79,23.34c-2.2,2.23-5.29,3.67-8.15,5.13
		c-1.13,0.58-2.73,0.24-4.97,0.37c5.6-6.96,10.74-12.82,15.29-19.11c9.8-13.57,19.43-27.27,28.83-41.12
		c2.51-3.7,4.38-8.02,5.71-12.31c1.87-6.06-1.18-9.1-7.52-8.52c-6.79,0.63-13.6,1.09-20.41,1.49c-1.27,0.07-2.57-0.5-3.86-0.77
		c-0.09-0.38-0.17-0.75-0.26-1.13c1.87-1.35,3.59-3.04,5.65-4c14.85-6.93,29.71-13.86,44.73-20.42c3.17-1.38,6.99-1.68,10.53-1.73
		c11.15-0.18,22.3-0.01,33.45,0.04C317.96,71.71,319.01,71.82,320.5,71.92z"/>
	<path class="st0" d="M138.08,178.56c-2.95,1.86-5.29,0.54-6.99-0.87c-6.06-5.04-12.34-9.96-17.65-15.73
		c-7.21-7.85-13.6-16.44-20.35-24.71c-0.75-0.92-1.55-1.81-2.33-2.72c-2.55,0.89-2.53,2.14-1.05,3.95
		c5.09,6.22,10.27,12.37,15.1,18.78c3.01,4,5.63,8.33,8.09,12.7c0.92,1.63,0.87,3.79,1.36,6.17c-5.37-0.26-8.87-2.96-11.66-6.06
		c-9.1-10.13-17.88-20.55-26.76-30.88c-1.24-1.44-2.28-3.49-4.3-0.5c7.1,10.18,15.96,19.36,19.85,32.1
		c-4.25,0.65-7.46-0.61-9.86-2.86c-4.79-4.49-9.29-9.31-13.66-14.21c-3.35-3.75-6.32-7.84-9.48-11.8c-2.49,0.53-3.04,1.65-1.44,3.66
		c2.16,2.72,4.28,5.48,6.41,8.23c1.02,1.33,2.29,2.57,2.92,4.06c0.54,1.26,0.32,2.85,0.44,4.29c-1.35-0.15-3.14,0.21-3.97-0.52
		c-4.75-4.15-9.87-8.09-13.75-12.98c-7.4-9.31-14.27-19-24.54-25.52c-0.65-0.41-1.23-1.49-1.23-2.25
		c-0.07-16.2-0.05-32.39-0.05-49.17c1.42,0,2.68,0,3.95,0c10.79-0.04,21.59-0.23,32.38-0.03c3.77,0.07,7.85,0.38,11.24,1.84
		c14.61,6.3,29.05,13.01,43.49,19.71c2.34,1.09,4.37,2.87,7.53,5c-2.07,0.73-3.25,1.54-4.39,1.49c-6.45-0.28-12.9-0.76-19.35-1.19
		c-1.19-0.08-2.38-0.36-3.57-0.35c-4.27,0.01-6.7,2.41-5.85,6.62c0.74,3.69,1.91,7.55,3.91,10.68c5.1,7.96,10.77,15.56,16.2,23.31
		c3.08,4.4,6.02,8.89,9.21,13.21c5.83,7.89,11.79,15.69,17.71,23.51C136.34,176.44,137.1,177.34,138.08,178.56z"/>
	<path class="st0" d="M170.52,77.98c-3.73,0-7.26,0-10.67,0c-0.66-8.67-0.88-17.29-2.12-25.77c-0.84-5.72-2.67-11.4-4.86-16.77
		c-2.39-5.86-7.14-9.36-13.76-9.15c-6.5,0.2-10.95,3.78-13.65,9.55c-3.63,7.76-2.95,15.74-0.16,23.44
		c2.3,6.34,5.49,12.37,8.44,18.89c-3.21,0-6.62,0.07-10.02-0.06c-0.69-0.02-1.6-0.6-1.99-1.19c-7.84-11.81-13.82-24.36-11.43-38.98
		c3.89-23.76,31.92-34.69,51.3-20.3c0.38,0.29,0.73,0.62,1.13,0.89c5.74,4.03,8.6,8.94,8.18,16.56
		c-0.75,13.51-0.22,27.08-0.23,40.63C170.68,76.4,170.58,77.09,170.52,77.98z M130.1,24.59c0-0.5,0-1.01,0-1.51
		c-1.4-0.97-2.71-2.51-4.24-2.76c-2.14-0.36-3.58,1.21-3.58,3.49c0,2.26,1.41,3.88,3.55,3.55C127.36,27.12,128.69,25.56,130.1,24.59
		z M117.6,39.29c0.57,0.04,1.14,0.07,1.71,0.11c1.02-1.32,2.61-2.51,2.94-3.99c0.48-2.14-1.07-3.62-3.29-3.74
		c-2.19-0.12-3.96,1.03-3.7,3.3C115.42,36.49,116.78,37.86,117.6,39.29z M168.31,59.48c0.01-0.54,0.02-1.07,0.03-1.61
		c-1.39-0.95-2.68-2.42-4.19-2.71c-2.21-0.43-3.57,1.18-3.59,3.41c-0.02,2.2,1.23,3.9,3.48,3.51
		C165.56,61.82,166.89,60.39,168.31,59.48z M121.13,47c-1.35-0.95-2.6-2.44-4.07-2.72c-2.18-0.41-3.94,1.29-3.54,3.36
		c0.28,1.42,2.01,3.24,3.42,3.59C118.96,51.74,120.46,50.23,121.13,47z M164.38,41.56c-0.53-0.01-1.07-0.03-1.6-0.04
		c-0.95,1.4-2.43,2.7-2.72,4.22c-0.42,2.19,1.12,3.57,3.41,3.59c2.27,0.02,3.89-1.35,3.59-3.48
		C166.84,44.32,165.32,42.98,164.38,41.56z M129.16,72.75c-0.01-0.55-0.03-1.1-0.04-1.65c-1.41-0.88-2.97-2.63-4.2-2.42
		c-1.36,0.23-2.42,2.25-3.61,3.49c1.26,1.19,2.43,3.19,3.8,3.34C126.34,75.64,127.8,73.75,129.16,72.75z M165.94,34.39
		c0.01-0.58,0.02-1.15,0.03-1.73c-1.37-0.94-2.65-2.44-4.13-2.69c-2.15-0.35-3.52,1.21-3.55,3.48c-0.03,2.29,1.31,3.84,3.49,3.5
		C163.26,36.73,164.56,35.29,165.94,34.39z M157.47,24.06c0-0.51,0.01-1.02,0.01-1.53c-1.39-0.96-2.68-2.44-4.2-2.74
		c-2.23-0.45-3.92,1.31-3.49,3.37c0.3,1.43,2.13,3.35,3.47,3.52C154.53,26.84,156.05,25.01,157.47,24.06z M143.43,20.27
		c-0.02-0.57-0.03-1.15-0.05-1.72c-1.41-0.85-2.75-2.23-4.25-2.44c-2.17-0.29-3.91,1.39-3.37,3.48c0.36,1.41,2.25,3.18,3.62,3.34
		C140.62,23.08,142.08,21.24,143.43,20.27z M124.38,60.71c0-0.5-0.01-0.99-0.01-1.49c-1.43-0.92-2.77-2.37-4.31-2.62
		c-2.22-0.36-3.53,1.29-3.46,3.53c0.07,2.2,1.37,3.87,3.6,3.39C121.72,63.19,122.99,61.68,124.38,60.71z M168.31,72.04
		c0.01-0.51,0.02-1.01,0.02-1.52c-1.38-1.01-2.83-2.9-4.12-2.8c-1.3,0.1-3.14,1.99-3.51,3.42c-0.55,2.12,1.16,3.82,3.35,3.48
		C165.57,74.4,166.9,72.95,168.31,72.04z"/>
	<path class="st0" d="M184.84,78.02c-3.66,0-7.11,0-10.92,0c-0.07-0.99-0.2-2.02-0.2-3.05c-0.01-15.11-0.07-30.21,0.07-45.32
		c0.02-1.72,0.75-3.77,1.83-5.11c14.56-17.93,40.37-17.83,53.2,0.18c6.25,8.78,7.74,18.67,4.52,28.76
		c-2.37,7.45-6.1,14.47-9.26,21.66c-1.1,2.5-3.04,3.37-5.8,3.08c-2.48-0.26-5.01-0.05-8.27-0.05c0.95-1.62,1.62-2.79,2.31-3.95
		c5.13-8.65,9.14-17.66,9.03-27.98c-0.06-5.41-1.4-10.44-5.02-14.64c-6.64-7.7-17.64-7.09-23.31,1.34
		c-4.99,7.42-6.22,15.99-7.04,24.59C185.37,64.2,185.22,70.9,184.84,78.02z M222.78,24.92c0.04-0.55,0.07-1.11,0.11-1.66
		c-1.33-1.01-2.54-2.54-4.03-2.91c-2.2-0.54-3.99,1.18-3.7,3.2c0.2,1.44,1.95,3.42,3.31,3.71
		C219.69,27.52,221.33,25.78,222.78,24.92z M192.09,19.07c-0.56,0-1.12,0.01-1.68,0.01c-0.95,1.39-2.78,2.91-2.6,4.14
		c0.2,1.37,2.23,2.47,3.47,3.69c1.21-1.23,3.21-2.35,3.41-3.72C194.85,21.96,193.03,20.46,192.09,19.07z M224.76,39.33
		c0.56,0.02,1.12,0.04,1.68,0.06c0.98-1.34,2.51-2.56,2.82-4.03c0.44-2.15-1.04-3.58-3.34-3.65c-2.26-0.08-3.91,1.2-3.67,3.36
		C222.42,36.56,223.88,37.91,224.76,39.33z M185.16,46.64c0-0.58,0-1.15-0.01-1.73c-1.39-0.94-2.91-2.77-4.14-2.59
		c-1.37,0.2-3.2,2.07-3.5,3.49c-0.43,2.02,1.21,3.83,3.46,3.41C182.48,48.96,183.77,47.55,185.16,46.64z M223.72,72.85
		c0-0.51,0.01-1.01,0.01-1.52c-1.4-0.97-2.87-2.8-4.16-2.68c-1.32,0.13-3.42,2.18-3.4,3.37c0.02,1.25,2.03,3.32,3.35,3.47
		C220.8,75.65,222.31,73.82,223.72,72.85z M178.99,75.19c0.56,0.07,1.13,0.14,1.69,0.21c1.1-1.26,2.71-2.35,3.16-3.81
		c0.67-2.14-0.91-4.05-2.96-3.89c-1.44,0.11-3.49,1.73-3.88,3.08C176.67,71.96,178.26,73.7,178.99,75.19z M181.38,54.48
		c-0.56-0.01-1.12-0.02-1.68-0.04c-0.98,1.36-2.84,2.82-2.71,4.06c0.14,1.33,1.97,3.15,3.39,3.54c2.14,0.58,3.79-1.16,3.5-3.31
		C183.68,57.23,182.26,55.89,181.38,54.48z M186.87,34.17c-0.02-0.56-0.04-1.11-0.06-1.67c-1.42-0.88-2.98-2.63-4.21-2.42
		c-1.31,0.22-2.98,2.15-3.28,3.58c-0.45,2.17,1.32,3.75,3.49,3.29C184.29,36.64,185.52,35.14,186.87,34.17z M223.48,46.59
		c-0.04,0.58-0.08,1.16-0.11,1.74c1.31,1.02,2.68,2.93,3.9,2.83c1.38-0.11,3.35-1.81,3.74-3.19c0.57-1.98-0.98-3.89-3.2-3.68
		C226.31,44.44,224.92,45.78,223.48,46.59z M228.58,60.69c-0.02-0.57-0.04-1.13-0.07-1.7c-1.43-0.84-3.03-2.52-4.25-2.29
		c-1.37,0.26-2.4,2.27-3.58,3.51c1.29,1.14,2.5,3.06,3.89,3.19C225.81,63.52,227.23,61.67,228.58,60.69z M206.55,15.52
		c-0.57-0.06-1.13-0.12-1.7-0.17c-1.05,1.27-2.62,2.4-3.03,3.85c-0.61,2.15,0.96,4.02,3.04,3.78c1.45-0.17,3.46-1.79,3.83-3.14
		C209.01,18.68,207.35,16.98,206.55,15.52z"/>
	<path class="st0" d="M188.13,78.18c-0.12-12.98,0.5-25.33,4.37-37.32c0.37-1.13,0.87-2.22,1.34-3.32
		c2.19-5.03,5.85-8.38,11.49-8.21c5.74,0.17,9.43,3.76,11.48,8.93c2.51,6.31,2.17,12.88-0.21,18.96
		c-2.59,6.63-6.17,12.88-9.48,19.22c-0.44,0.84-1.82,1.64-2.79,1.67C199.1,78.26,193.84,78.18,188.13,78.18z"/>
	<path class="st0" d="M156.71,78.18c-6.07,0-11.43,0.05-16.79-0.06c-0.79-0.02-1.85-0.64-2.3-1.31
		c-6.39-9.54-11.74-19.5-11.43-31.47c0.2-7.79,4.39-13.98,10.4-15.59c5.1-1.36,9.95,0.67,12.8,5.5c4.18,7.09,5.32,15.06,6.16,23.03
		C156.22,64.68,156.32,71.14,156.71,78.18z"/>
	<path class="st0" d="M3.03,97.72c0-8.02-0.02-16.05,0.01-24.07c0.02-5.59,3.22-9.22,8.21-9.39c5.02-0.17,8.9,3.63,8.93,9.14
		c0.08,16.28,0.07,32.57-0.01,48.86c-0.03,5.49-3.89,9.33-8.86,9.21c-4.97-0.12-8.24-3.78-8.26-9.33
		C3.01,114.01,3.03,105.86,3.03,97.72z"/>
	<path class="st0" d="M219.59,81.54c0,4.53,0,8.79,0,13.41c-0.92-0.32-1.59-0.47-2.17-0.78c-9.81-5.25-19.7-4.95-29.78-0.7
		c-2.23,0.94-4.8,1.21-7.24,1.43c-2.62,0.24-5.28,0.08-7.92,0.07c-7.14-0.03-14.07,0.05-21.07-2.93c-8.12-3.45-16.7-2.4-24.68,1.79
		c-0.63,0.33-1.3,0.58-1.96,0.85c-0.08,0.03-0.22-0.09-0.55-0.23c0-4.15,0-8.39,0-12.92C155.94,81.54,187.66,81.54,219.59,81.54z"/>
	<path class="st0" d="M340.43,97.77c0,8.04,0.03,16.08-0.01,24.11c-0.03,5.92-3.26,9.54-8.38,9.57c-5.15,0.03-8.61-3.59-8.63-9.38
		c-0.06-16.08-0.06-32.15,0-48.23c0.02-6.02,3.52-9.69,8.81-9.57c5.03,0.11,8.22,3.89,8.23,9.75c0.01,7.92,0,15.84,0,23.75
		C340.44,97.77,340.43,97.77,340.43,97.77z"/>
	<path class="st0" d="M184.84,12.03c-4.48,3.87-8.53,7.37-12.62,10.9c-3.53-3.12-7.26-6.42-11.32-10.02
		c1.92-4.58,5.63-7.36,10.88-7.93C177.74,4.32,181.63,7.65,184.84,12.03z M173.38,8.62c-1.89,1.05-3.8,1.65-4.86,2.94
		c-0.45,0.55,0.83,2.58,1.4,3.9c0.28,0.64,0.79,1.18,1.15,1.79c1.92,3.2,2.48,3.23,4.48,0.23c0.39-0.59,0.85-1.17,1.13-1.81
		c0.57-1.32,1.83-3.26,1.37-3.9C177.07,10.42,175.17,9.74,173.38,8.62z"/>
	<path class="st0" d="M171.93,104.81c-2.43-2.07-4.75-4.04-7.56-6.44c5.13,0,9.63,0,14.7,0
		C176.48,100.71,174.23,102.73,171.93,104.81z"/>
	<path d="M130.1,24.59c-1.41,0.97-2.74,2.53-4.27,2.77c-2.14,0.33-3.55-1.28-3.55-3.55c0-2.29,1.43-3.85,3.58-3.49
		c1.52,0.25,2.83,1.79,4.24,2.76C130.1,23.58,130.1,24.09,130.1,24.59z"/>
	<path d="M117.6,39.29c-0.82-1.43-2.17-2.81-2.34-4.31c-0.25-2.27,1.52-3.42,3.7-3.3c2.22,0.12,3.77,1.6,3.29,3.74
		c-0.33,1.48-1.92,2.67-2.94,3.99C118.74,39.37,118.17,39.33,117.6,39.29z"/>
	<path d="M168.31,59.48c-1.42,0.91-2.75,2.34-4.27,2.6c-2.25,0.38-3.5-1.32-3.48-3.51c0.02-2.23,1.38-3.84,3.59-3.41
		c1.52,0.3,2.8,1.77,4.19,2.71C168.32,58.41,168.31,58.95,168.31,59.48z"/>
	<path d="M121.13,47c-0.67,3.23-2.16,4.74-4.19,4.24c-1.41-0.35-3.14-2.17-3.42-3.59c-0.41-2.08,1.36-3.77,3.54-3.36
		C118.53,44.55,119.78,46.05,121.13,47z"/>
	<path d="M164.38,41.56c0.94,1.42,2.46,2.76,2.67,4.29c0.3,2.14-1.31,3.51-3.59,3.48c-2.29-0.03-3.83-1.4-3.41-3.59
		c0.29-1.53,1.77-2.82,2.72-4.22C163.32,41.53,163.85,41.54,164.38,41.56z"/>
	<path d="M129.16,72.75c-1.36,1-2.81,2.89-4.05,2.76c-1.37-0.15-2.54-2.15-3.8-3.34c1.19-1.24,2.25-3.25,3.61-3.49
		c1.23-0.21,2.79,1.54,4.2,2.42C129.13,71.65,129.15,72.2,129.16,72.75z"/>
	<path d="M165.94,34.39c-1.38,0.9-2.68,2.33-4.16,2.56c-2.18,0.34-3.52-1.21-3.49-3.5c0.03-2.27,1.4-3.83,3.55-3.48
		c1.48,0.24,2.76,1.75,4.13,2.69C165.96,33.24,165.95,33.82,165.94,34.39z"/>
	<path d="M157.47,24.06c-1.41,0.95-2.94,2.78-4.21,2.61c-1.34-0.17-3.17-2.09-3.47-3.52c-0.43-2.06,1.25-3.82,3.49-3.37
		c1.52,0.31,2.81,1.79,4.2,2.74C157.47,23.04,157.47,23.55,157.47,24.06z"/>
	<path d="M143.43,20.27c-1.36,0.97-2.82,2.81-4.04,2.67c-1.37-0.16-3.26-1.94-3.62-3.34c-0.54-2.09,1.21-3.77,3.37-3.48
		c1.5,0.2,2.84,1.58,4.25,2.44C143.4,19.12,143.42,19.7,143.43,20.27z"/>
	<path d="M124.38,60.71c-1.38,0.98-2.66,2.49-4.18,2.81c-2.24,0.48-3.54-1.19-3.6-3.39c-0.07-2.24,1.24-3.89,3.46-3.53
		c1.54,0.25,2.88,1.7,4.31,2.62C124.37,59.71,124.37,60.21,124.38,60.71z"/>
	<path d="M168.31,72.04c-1.41,0.9-2.74,2.35-4.26,2.59c-2.19,0.34-3.9-1.36-3.35-3.48c0.37-1.43,2.21-3.32,3.51-3.42
		c1.3-0.1,2.74,1.78,4.12,2.8C168.32,71.03,168.32,71.54,168.31,72.04z"/>
	<path d="M222.78,24.92c-1.45,0.86-3.09,2.59-4.31,2.34c-1.36-0.28-3.11-2.27-3.31-3.71c-0.28-2.02,1.5-3.75,3.7-3.2
		c1.49,0.37,2.7,1.9,4.03,2.91C222.86,23.82,222.82,24.37,222.78,24.92z"/>
	<path d="M192.09,19.07c0.94,1.38,2.76,2.89,2.59,4.12c-0.19,1.37-2.19,2.49-3.41,3.72c-1.23-1.22-3.27-2.32-3.47-3.69
		c-0.18-1.23,1.66-2.75,2.6-4.14C190.97,19.08,191.53,19.08,192.09,19.07z"/>
	<path d="M224.76,39.33c-0.88-1.42-2.35-2.77-2.51-4.27c-0.24-2.16,1.42-3.43,3.67-3.36c2.29,0.08,3.78,1.51,3.34,3.65
		c-0.3,1.48-1.83,2.7-2.82,4.03C225.88,39.37,225.32,39.35,224.76,39.33z"/>
	<path d="M185.16,46.64c-1.39,0.9-2.68,2.31-4.19,2.59c-2.26,0.41-3.89-1.4-3.46-3.41c0.3-1.42,2.14-3.29,3.5-3.49
		c1.23-0.18,2.75,1.65,4.14,2.59C185.16,45.49,185.16,46.07,185.16,46.64z"/>
	<path d="M223.72,72.85c-1.41,0.96-2.92,2.79-4.19,2.64c-1.32-0.16-3.34-2.22-3.35-3.47c-0.02-1.19,2.08-3.24,3.4-3.37
		c1.29-0.12,2.77,1.71,4.16,2.68C223.73,71.84,223.73,72.35,223.72,72.85z"/>
	<path d="M178.99,75.19c-0.73-1.49-2.32-3.23-1.98-4.41c0.39-1.35,2.44-2.96,3.88-3.08c2.05-0.16,3.62,1.75,2.96,3.89
		c-0.45,1.46-2.07,2.55-3.16,3.81C180.12,75.34,179.56,75.26,178.99,75.19z"/>
	<path d="M181.38,54.48c0.88,1.41,2.3,2.75,2.5,4.25c0.29,2.15-1.36,3.9-3.5,3.31c-1.42-0.39-3.25-2.2-3.39-3.54
		c-0.13-1.25,1.73-2.7,2.71-4.06C180.26,54.46,180.82,54.47,181.38,54.48z"/>
	<path d="M186.87,34.17c-1.34,0.97-2.57,2.47-4.06,2.78c-2.18,0.46-3.95-1.13-3.49-3.29c0.3-1.43,1.97-3.36,3.28-3.58
		c1.24-0.21,2.79,1.54,4.21,2.42C186.83,33.06,186.85,33.61,186.87,34.17z"/>
	<path d="M223.48,46.59c1.44-0.81,2.83-2.15,4.33-2.29c2.23-0.21,3.77,1.7,3.2,3.68c-0.4,1.38-2.36,3.08-3.74,3.19
		c-1.22,0.1-2.59-1.81-3.9-2.83C223.41,47.75,223.45,47.17,223.48,46.59z"/>
	<path d="M228.58,60.69c-1.34,0.98-2.77,2.83-4.01,2.72c-1.38-0.13-2.6-2.05-3.89-3.19c1.18-1.25,2.21-3.25,3.58-3.51
		c1.23-0.23,2.82,1.45,4.25,2.29C228.53,59.56,228.55,60.12,228.58,60.69z"/>
	<path d="M206.55,15.52c0.79,1.46,2.46,3.15,2.14,4.31c-0.37,1.35-2.38,2.98-3.83,3.14c-2.08,0.24-3.65-1.63-3.04-3.78
		c0.41-1.45,1.98-2.58,3.03-3.85C205.42,15.41,205.99,15.47,206.55,15.52z"/>
	<path d="M173.38,8.62c1.79,1.12,3.69,1.8,4.67,3.15c0.46,0.64-0.8,2.58-1.37,3.9c-0.28,0.65-0.73,1.22-1.13,1.81
		c-2,3-2.56,2.97-4.48-0.23c-0.37-0.61-0.87-1.15-1.15-1.79c-0.58-1.32-1.86-3.35-1.4-3.9C169.58,10.26,171.49,9.67,173.38,8.62z"/>
</g>
<g>
	<path d="M234.73,126.31c-0.44,1.83-0.9,3.65-1.33,5.49c-0.52,2.23-1.03,4.47-1.51,6.71c-0.71,3.3-1.68,6.52-2.78,9.7
		c-1.13,3.26-2.26,6.51-3.46,9.74c-0.54,1.46-1.29,2.84-1.88,4.29c-1.63,4.04-3.56,7.92-5.79,11.61c-1.89,3.12-3.87,6.17-5.78,9.28
		c-1.16,1.89-2.26,3.81-3.37,5.73c-1.6,2.76-3.52,5.21-5.7,7.45c-0.65,0.67-1.21,1.46-1.8,2.19c-0.06,0.07-0.1,0.16-0.17,0.23
		c-1.26,1.32-2.52,2.65-3.79,3.97c-4.13,4.25-8.81,7.61-13.91,10.28c-2.93,1.53-5.93,2.84-9.09,3.66c-2.67,0.69-5.36,1.05-8.09,0.8
		c-2.16-0.2-4.15-0.95-5.99-2.15c-4.44-2.91-8.43-6.44-12.05-10.45c-1.15-1.27-2.26-2.59-3.36-3.9c-2.15-2.57-3.44-5.63-4.13-9.03
		c-0.58-2.86-0.69-5.77-0.6-8.69c0.23-7.88,1.36-15.64,3.15-23.32c1.43-6.16,3.38-12.14,5.82-17.95c1.77-4.2,3.84-8.22,6.01-12.19
		c2.19-4.01,4.54-7.92,7.07-11.7c2.83-4.23,5.9-8.23,9.19-12.05c1.69-1.96,3.29-4.01,4.94-6c3.05-3.67,6.74-6.36,10.87-8.34
		c2.84-1.36,5.7-2.68,8.67-3.7c3.12-1.07,6.3-1.45,9.53-1.35c2.28,0.07,4.54,0.33,6.68,1.14c1.42,0.53,2.81,1.18,4.17,1.87
		c2.17,1.1,4.34,2.21,6.46,3.42c2.85,1.63,5.14,3.96,7,6.82c2.03,3.13,3.56,6.52,4.47,10.25c0.82,3.37,1.15,6.81,1.06,10.31
		C235.18,122.39,234.99,124.34,234.73,126.31z M232.14,128.7c0.69-3.09,1.13-6.21,1.15-9.38c0.04-8.28-2.52-15.39-7.69-21.31
		c-2.03-2.32-4.26-4.36-7.15-5.43c-2.44-0.9-4.81-2.02-7.25-2.91c-3.46-1.26-7.03-1.46-10.66-0.71c-4.79,1-9.35,2.79-13.71,5.24
		c-3.97,2.22-7.5,5.1-10.4,8.82c-4.11,5.27-8.18,10.58-12.25,15.88c-1.68,2.18-3.3,4.42-4.53,6.93c-0.95,1.95-1.98,3.86-2.79,5.91
		c-0.63,1.59-1.56,3.04-2.4,4.53c-0.82,1.46-1.74,2.85-2.52,4.33c-0.47,0.9-0.75,1.91-1.12,2.87c-1.02,2.72-2.1,5.41-3.05,8.16
		c-1.21,3.49-2.18,7.05-2.96,10.66c-0.51,2.36-1.03,4.72-1.34,7.11c-0.48,3.75-0.8,7.51-1.16,11.28c-0.2,2.14-0.36,4.28-0.22,6.42
		c0.24,3.56,1.1,6.89,2.86,9.88c1.18,2,2.61,3.78,4.09,5.51c3.37,3.93,7.22,7.22,11.37,10.13c3.24,2.27,6.79,2.96,10.62,2.28
		c4.95-0.88,9.61-2.71,14.04-5.32c3.87-2.29,7.42-5.08,10.78-8.19c3.25-3.02,6.17-6.37,8.67-10.14c1.82-2.75,3.63-5.5,5.43-8.26
		c1.89-2.9,3.86-5.75,5.63-8.73c4.22-7.13,7.71-14.65,10.48-22.55c1.61-4.59,2.88-9.29,4-14.03
		C230.77,134.69,231.45,131.69,232.14,128.7z"/>
	<path class="st0" d="M232.14,128.7c-0.69,2.99-1.37,5.99-2.07,8.98c-1.12,4.74-2.39,9.44-4,14.03c-2.77,7.9-6.26,15.42-10.48,22.55
		c-1.77,2.98-3.73,5.83-5.63,8.73c-1.8,2.76-3.61,5.51-5.43,8.26c-2.5,3.77-5.42,7.13-8.67,10.14c-3.35,3.11-6.91,5.9-10.78,8.19
		c-4.43,2.62-9.1,4.45-14.04,5.32c-3.83,0.68-7.38-0.01-10.62-2.28c-4.15-2.91-8-6.2-11.37-10.13c-1.48-1.73-2.92-3.51-4.09-5.51
		c-1.76-2.99-2.63-6.32-2.86-9.88c-0.14-2.14,0.02-4.28,0.22-6.42c0.36-3.76,0.68-7.53,1.16-11.28c0.31-2.39,0.83-4.75,1.34-7.11
		c0.78-3.62,1.75-7.18,2.96-10.66c0.95-2.74,2.03-5.44,3.05-8.16c0.36-0.96,0.64-1.97,1.12-2.87c0.78-1.48,1.7-2.87,2.52-4.33
		c0.84-1.49,1.77-2.94,2.4-4.53c0.81-2.04,1.83-3.95,2.79-5.91c1.23-2.52,2.85-4.75,4.53-6.93c4.08-5.3,8.15-10.61,12.25-15.88
		c2.9-3.72,6.43-6.6,10.4-8.82c4.36-2.44,8.91-4.24,13.71-5.24c3.63-0.75,7.21-0.55,10.66,0.71c2.44,0.89,4.81,2.01,7.25,2.91
		c2.89,1.06,5.12,3.1,7.15,5.43c5.17,5.92,7.73,13.04,7.69,21.31C233.27,122.49,232.84,125.61,232.14,128.7z M168.19,120.18
		c-0.07-0.01-0.23-0.04-0.39-0.04c-0.76,0-1.29,0.46-1.29,1.28c0,1.04,0.13,2.06,1.05,2.68c0.13,0.09,0.24,0.2,0.35,0.31
		c0.96,0.9,1.6,2.05,2.07,3.32c1.26,3.39,2.7,6.68,4.29,9.89c1.96,3.95,4.21,7.68,6.98,11.02c2.98,3.58,6.45,6.53,10.12,9.22
		c4.77,3.5,9.92,6.2,15.44,8.1c1.42,0.49,2.83,1.06,4.39,0.92c0.92-0.09,1.86-0.02,2.76-0.34c0.66-0.23,1.23-0.61,1.51-1.33
		c0.33-0.85,0.13-1.64-0.4-2.26c-0.55-0.66-1.17-1.28-1.85-1.78c-1.49-1.08-3.03-2.1-4.57-3.09c-1.83-1.18-3.7-2.27-5.37-3.69
		c-4.67-3.99-8.93-8.46-12.82-13.33c-2.25-2.81-4.37-5.73-6.57-8.58c-3.11-4.04-6.67-7.54-10.89-10.2
		C171.52,121.34,169.99,120.56,168.19,120.18z M196.08,179.65c1.36,0.19,2.79,0.24,4.23,0.09c1.27-0.13,2.52-0.41,3.72-0.91
		c1.19-0.5,1.74-1.72,1.27-2.9c-0.57-1.45-1.38-2.71-2.65-3.55c-0.69-0.46-1.35-0.96-2.07-1.34c-2.25-1.21-4.51-2.38-6.78-3.54
		c-2.89-1.48-5.73-3.05-8.38-5c-2.92-2.16-5.85-4.31-8.78-6.45c-2.57-1.88-5.14-3.77-7.51-5.95c-2.35-2.16-4.44-4.58-6.09-7.43
		c-0.67-1.15-1.64-1.99-2.69-2.7c-1.01-0.68-2.14-0.28-2.74,0.87c-0.37,0.72-0.54,1.49-0.49,2.29c0.08,1.36,0.15,2.72,0.32,4.06
		c0.43,3.42,1.46,6.6,3.41,9.32c1.32,1.83,2.75,3.57,4.17,5.3c1.03,1.25,2.13,2.45,3.47,3.31c2.47,1.58,4.73,3.45,6.96,5.38
		c1.59,1.37,3.3,2.51,5.2,3.3c3.75,1.56,7.51,3.1,11.28,4.63C193.25,178.94,194.58,179.5,196.08,179.65z M215.36,143.98
		c0.69,0.06,1.38,0.15,2.07,0.19c1.16,0.07,2.32-0.03,3.42-0.55c1.39-0.66,2.27-2.09,2.26-3.72c0-1.08-0.6-1.76-1.38-2.25
		c-1.72-1.1-3.41-2.24-5.18-3.23c-4.17-2.33-8.06-5.11-11.69-8.32c-4.05-3.59-7.76-7.58-11.24-11.81c-1.88-2.28-4.07-4.04-6.69-5.17
		c-0.43-0.18-0.91-0.32-1.37-0.3c-0.73,0.03-1.47,0.15-2.19,0.32c-0.83,0.21-1.26,1.01-1.01,1.88c0.15,0.51,0.38,1.02,0.67,1.44
		c3.1,4.58,6.14,9.2,9.41,13.64c0.74,1,1.44,2.05,2.4,2.83c0.19,0.15,0.35,0.35,0.5,0.56c1.52,2.18,3.37,4.01,5.36,5.66
		c2.15,1.77,4.32,3.5,6.51,5.21C209.65,142.27,212.37,143.46,215.36,143.98z M183.92,199.3c1.64,0.2,3.14,0.02,4.63-0.17
		c2.01-0.26,3.33-1.47,4.06-3.5c0.45-1.26,0.25-2.22-0.66-3.09c-0.19-0.18-0.39-0.35-0.6-0.49c-2.75-1.87-5.53-3.68-8.46-5.22
		c-2.91-1.53-5.85-3.01-8.73-4.61c-2.67-1.48-5.18-3.26-7.46-5.39c-2.39-2.23-4.75-4.5-7.15-6.72c-1.02-0.95-2.09-1.85-3.17-2.72
		c-0.62-0.49-1.34-0.79-2.13-0.85c-1.41-0.11-2.66,1.16-2.65,2.7c0.01,1.23,0.65,2.02,1.53,2.64c0.31,0.22,0.62,0.43,0.92,0.67
		c1.67,1.34,2.9,3.11,4.09,4.92c2.47,3.77,5.08,7.41,8.12,10.66c4.06,4.34,8.57,7.95,14.06,9.98
		C181.56,198.57,182.76,199.12,183.92,199.3z M198.52,100.23C198.51,100.23,198.51,100.23,198.52,100.23
		c-0.06,0.34-0.14,0.68-0.18,1.03c-0.11,0.95,0.07,1.79,0.67,2.51c0.43,0.52,0.8,1.08,1.2,1.63c0.42,0.58,0.78,1.24,1.28,1.74
		c2.82,2.84,5.64,5.68,8.52,8.45c1.85,1.78,3.74,3.54,5.72,5.15c2.42,1.97,5.13,3.29,8.26,3.43c0.83,0.04,1.65,0.02,2.46-0.27
		c0.75-0.27,1.18-0.83,1.2-1.68c0.06-2.01-0.47-3.81-1.62-5.36c-0.88-1.19-1.97-2.11-3.17-2.86c-2.3-1.42-4.63-2.78-6.94-4.17
		c-2.23-1.34-4.37-2.79-6.23-4.69c-1.35-1.37-2.7-2.74-4.06-4.09c-1.44-1.43-3.2-2.26-5.03-2.93c-0.96-0.36-1.75,0.2-1.93,1.29
		C198.61,99.69,198.56,99.96,198.52,100.23z M150.26,184.1c0.41,1.27,0.71,2.49,1.18,3.61c0.88,2.09,1.85,4.13,2.79,6.18
		c1.52,3.31,3.74,5.95,6.45,8.14c2.44,1.98,5.12,3.53,7.88,4.93c1.19,0.6,2.45,0.88,3.79,0.63c2.03-0.38,3.46-1.72,4.59-3.53
		c0.05-0.09,0.04-0.26,0-0.36c-0.68-1.71-1.68-3.13-3.23-3.99c-2.39-1.34-4.77-2.7-7.21-3.95c-2.56-1.31-4.95-2.86-6.85-5.15
		c-1.12-1.35-2.16-2.78-3.25-4.16c-0.61-0.77-1.21-1.54-1.85-2.28c-0.51-0.59-1.17-0.83-1.92-0.68
		C151.87,183.65,151.12,183.87,150.26,184.1z M184.74,100.31c0.18,0.08,0.36,0.14,0.54,0.24c0.4,0.21,0.78,0.22,1.2,0.01
		c0.91-0.46,1.85-0.85,2.75-1.32c2.15-1.13,4.31-2.22,6.58-3c7.18-2.47,14.09-1.99,20.74,1.52c0.81,0.43,1.64,0.68,2.51,0.84
		c0.45-1.23,0.09-2.36-0.99-2.84c-1.83-0.83-3.67-1.65-5.54-2.37c-2.02-0.78-4.12-1.22-6.28-1.34c-3.6-0.19-7.1,0.5-10.54,1.72
		c-3.32,1.18-6.47,2.81-9.57,4.54c-1.28,0.71-1.02,0.31-1.4,1.92C184.73,100.23,184.74,100.25,184.74,100.31z M183.62,177.16
		c-0.8-0.34-1.57-0.62-2.31-0.97c-0.75-0.36-1.47-0.78-2.2-1.17c-0.91-0.48-1.81-0.99-2.75-1.4c-3.02-1.33-5.86-3-8.39-5.22
		c-2.13-1.87-3.99-4.03-5.89-6.17c-0.76-0.86-1.51-1.73-2.29-2.57c-0.72-0.78-1.56-0.94-2.45-0.48c0.33,0.83,0.57,1.71,1.19,2.37
		c0.44,0.47,0.84,0.99,1.27,1.47c1.65,1.84,3.25,3.75,4.98,5.51c3.54,3.61,7.66,6.23,12.22,8.08c1.4,0.57,2.82,1.02,4.35,0.97
		C182.12,177.56,182.87,177.44,183.62,177.16z M172.08,144.27c0.1,0.14,0.21,0.28,0.32,0.43c1.09,1.41,2.2,2.8,3.26,4.24
		c3.16,4.31,6.92,7.89,11.31,10.68c2.31,1.47,4.63,2.94,7.32,3.52c0.51,0.11,1.01,0.26,1.51,0.39c0.34-0.83,0.34-0.83-0.3-1.27
		c-0.1-0.07-0.2-0.13-0.31-0.2c-2.07-1.29-4.15-2.55-6.19-3.88c-4.66-3.02-8.87-6.62-12.25-11.27c-0.75-1.04-1.56-2.03-2.4-2.99
		C173.58,143.03,172.7,143.19,172.08,144.27z M195,196.66c1.09-0.06,1.98-0.47,2.83-1.2c1.38-1.19,2.59-2.51,3.55-4.12
		c2.97-4.97,6-9.9,8.97-14.87c0.56-0.94,1.04-1.95,1.47-2.97c0.38-0.89,0.05-1.52-0.8-1.76c-0.24-0.07-0.37-0.02-0.51,0.23
		c-0.77,1.37-1.57,2.73-2.35,4.1c-2.46,4.33-4.82,8.72-7.69,12.77c-1.09,1.54-2.11,3.12-3.43,4.46c-0.38,0.39-0.71,0.84-1.02,1.3
		C195.58,195.22,195.22,195.9,195,196.66z M179.23,116.39c-0.54,1.09-0.42,1.86,0.34,2.55c0.1,0.09,0.2,0.18,0.31,0.26
		c2.06,1.66,3.84,3.62,5.42,5.8c1.44,1.98,2.8,4.04,4.45,5.83c1.13,1.23,2.23,2.49,3.36,3.71c0.24,0.26,0.57,0.47,0.89,0.62
		c0.5,0.24,0.51,0.21,0.89-0.27c-0.07-0.12-0.15-0.25-0.23-0.37c-0.86-1.39-1.73-2.78-2.58-4.18c-0.61-1-1.17-2.05-1.82-3.02
		c-0.98-1.44-2.02-2.84-3.05-4.25c-0.39-0.54-0.72-1.15-1.2-1.58c-1.61-1.42-3.26-2.79-4.94-4.12
		C180.53,116.95,179.86,116.72,179.23,116.39z M217.03,131.36c-0.47-0.52-0.89-1.09-1.4-1.53c-2.18-1.89-4.38-3.76-6.59-5.62
		c-2.88-2.44-5.7-4.96-8.15-7.92c-0.08-0.1-0.22-0.19-0.33-0.19c-0.51-0.01-1.02,0.02-1.56,0.04c0.03,0.08,0.04,0.12,0.06,0.14
		c0.08,0.13,0.16,0.25,0.24,0.38c3.46,5.26,7.82,9.44,12.92,12.74c1.32,0.85,2.68,1.62,4.02,2.43c0.2,0.12,0.34,0.11,0.48-0.09
		C216.8,131.61,216.9,131.51,217.03,131.36z M164.13,210.61c-0.4-0.67-0.76-1.27-1.35-1.65c-0.65-0.43-1.28-0.9-1.92-1.34
		c-2.78-1.92-5.52-3.92-8.03-6.24c-1.68-1.55-3.07-3.37-4.04-5.54c-0.17-0.39-0.42-0.75-0.69-1.06c-0.17-0.2-0.46-0.36-0.71-0.38
		c-0.46-0.04-0.94,0.03-1.45,0.06c0.09,0.19,0.16,0.33,0.23,0.46c2.01,3.83,4.59,7.14,7.66,9.99c2.14,1.99,4.46,3.68,7.12,4.81
		C161.95,210.13,162.98,210.44,164.13,210.61z M152.31,149.24c-0.06,0.09-0.11,0.16-0.15,0.23c-1.48,2.42-2.5,5.05-3.04,7.87
		c-0.25,1.34-0.37,2.69-0.16,4.03c0.04,0.25,0.1,0.48,0.17,0.82c0.07-0.17,0.1-0.24,0.13-0.3c1.16-3.41,2.29-6.83,3.5-10.22
		c0.34-0.95,0.38-1.68-0.34-2.34C152.39,149.31,152.36,149.29,152.31,149.24z M169.25,132.15c-0.53,0.47-0.99,0.94-1.18,1.68
		c-0.41,1.59-0.89,3.16-1.3,4.75c-0.19,0.73-0.35,1.47-0.43,2.21c-0.08,0.71,0.09,1.4,0.43,2.13c0.34-0.58,0.72-1.06,0.92-1.6
		c0.68-1.89,1.29-3.8,1.95-5.7c0.42-1.21,0.52-2.36-0.32-3.39C169.31,132.21,169.29,132.2,169.25,132.15z M163.04,137.99
		c1.37-2.81,2.72-5.61,4.1-8.45c-0.47-0.05-0.88-0.1-1.3-0.15c-0.2-0.03-0.33,0.06-0.44,0.25c-0.26,0.45-0.54,0.89-0.8,1.34
		c-1.05,1.81-1.92,3.7-2.27,5.8c-0.18,1.06-0.25,0.76,0.57,1.18C162.94,137.99,162.97,137.98,163.04,137.99z M222.23,101.39
		c0.08,3.24,0.15,6.43,0.23,9.72c0.94-1.33,1.5-2.71,1.68-4.25c0.16-1.34,0.01-2.65-0.15-3.96c-0.04-0.33-0.16-0.55-0.42-0.7
		C223.14,101.93,222.71,101.68,222.23,101.39z M171.56,139.49c-0.1,0.08-0.22,0.21-0.35,0.3c-0.45,0.32-0.68,0.77-0.77,1.34
		c-0.25,1.53-0.52,3.05-0.78,4.57c-0.05,0.3-0.1,0.61-0.15,0.92c0.15,0.05,0.27,0.08,0.38,0.14c0.34,0.19,0.57,0.07,0.84-0.22
		c0.63-0.68,0.98-1.5,1.12-2.42c0.16-1.02,0.27-2.04,0.37-3.07c0.03-0.27-0.03-0.57-0.13-0.81
		C171.96,139.97,171.75,139.75,171.56,139.49z M194.42,100.3c-0.07,0-0.1-0.01-0.13,0c-1.4,0.47-2.77,1.03-3.98,1.99
		c-0.77,0.61-1.41,1.35-1.75,2.33c-0.23,0.65-0.31,1.31-0.23,1.96c0.4-0.45,0.77-0.92,1.2-1.33c0.43-0.42,0.93-0.76,1.38-1.15
		c0.83-0.71,1.67-1.41,2.47-2.16C193.83,101.51,194.17,100.94,194.42,100.3z M212.11,153.31c1.29-0.97,2.4-2.11,3.21-3.57
		c0.35-0.64,0.61-1.32,0.68-2.06c0.09-0.97-0.33-1.9-1.05-2.23C214,148.07,213.06,150.69,212.11,153.31z M203.88,148.75
		c0.02-0.02,0.04-0.04,0.05-0.06c0.57-1.63,1.15-3.27,1.71-4.9c0.04-0.13,0.02-0.32-0.05-0.44c-0.28-0.5-0.6-0.97-0.95-1.55
		c-0.54,1.36-1.05,2.59-1.51,3.84c-0.26,0.71-0.35,1.48-0.18,2.23c0.19,0.89,0.1,0.71,0.87,0.89
		C203.83,148.76,203.84,148.75,203.88,148.75z M196.99,105.08c-0.84-0.12-1.86,0.15-2.52,0.66c-1.26,0.97-1.76,2.42-2.23,3.91
		C193.87,109.52,196.74,106.76,196.99,105.08z M209.8,144.83c-0.16,0.07-0.32,0.15-0.48,0.21c-0.37,0.13-0.6,0.37-0.71,0.79
		c-0.13,0.47-0.32,0.93-0.46,1.4c-0.32,1.02-0.57,2.06-0.51,3.14c0.01,0.11,0.06,0.27,0.14,0.31c0.22,0.11,0.47,0.17,0.74,0.26
		c0.52-1.25,1.06-2.45,1.52-3.69c0.51-1.37,0.59-0.97-0.2-2.38C209.83,144.85,209.82,144.85,209.8,144.83z M186.83,177.71
		c-0.03,0.02-0.06,0.03-0.07,0.05c-0.64,1.38-1.31,2.75-1.92,4.14c-0.4,0.93-0.26,1.86,0.19,2.86c0.68-1.21,1.36-2.32,1.94-3.49
		C187.58,180.07,187.51,178.87,186.83,177.71z M201.04,109.49c-3.05-0.51-4.78,1.49-4.45,4.47
		C198.07,112.48,199.53,111.01,201.04,109.49z M153.21,174.72c-0.42,0.95-0.84,1.82-1.19,2.71c-0.49,1.25-0.1,2.3,0.65,3.28
		c0.09-0.29,0.17-0.55,0.26-0.8c0.28-0.79,0.61-1.56,0.83-2.36C154.03,176.55,153.78,175.64,153.21,174.72z M218.99,104.54
		c-0.2,0.18-0.39,0.31-0.54,0.49c-0.14,0.15-0.32,0.34-0.33,0.52c-0.1,1.15-0.16,2.3-0.23,3.48c0.38,0.04,0.68,0.07,1,0.11
		c0.28-0.84,0.57-1.63,0.81-2.44c0.32-1.07,0.31-1.07-0.42-1.85C219.19,104.74,219.1,104.65,218.99,104.54z"/>
	<path d="M168.19,120.18c1.8,0.38,3.33,1.16,4.81,2.09c4.22,2.66,7.77,6.16,10.89,10.2c2.2,2.85,4.32,5.77,6.57,8.58
		c3.9,4.86,8.15,9.33,12.82,13.33c1.67,1.43,3.55,2.52,5.37,3.69c1.54,0.99,3.08,2.01,4.57,3.09c0.68,0.49,1.29,1.12,1.85,1.78
		c0.52,0.62,0.73,1.41,0.4,2.26c-0.28,0.72-0.85,1.1-1.51,1.33c-0.9,0.32-1.83,0.26-2.76,0.34c-1.56,0.14-2.97-0.43-4.39-0.92
		c-5.52-1.9-10.67-4.6-15.44-8.1c-3.67-2.69-7.14-5.64-10.12-9.22c-2.77-3.33-5.02-7.07-6.98-11.02c-1.59-3.21-3.03-6.5-4.29-9.89
		c-0.47-1.26-1.11-2.41-2.07-3.32c-0.11-0.11-0.23-0.22-0.35-0.31c-0.92-0.62-1.05-1.64-1.05-2.68c0-0.82,0.53-1.29,1.29-1.28
		C167.96,120.15,168.12,120.18,168.19,120.18z M169.72,123.37c-0.02,0.03-0.04,0.06-0.06,0.09c0.04,0.09,0.09,0.19,0.13,0.28
		c1.44,2.99,2.89,5.97,4.32,8.96c1.15,2.39,2.26,4.81,3.42,7.19c1.09,2.23,2.34,4.36,3.98,6.16c0.88,0.97,1.9,1.79,2.83,2.71
		c1.24,1.22,2.43,2.51,3.69,3.7c2.84,2.69,5.97,4.93,9.33,6.79c3.93,2.18,8.09,3.73,12.4,4.83c0.83,0.21,1.66,0.43,2.54,0.23
		c0.21-0.05,0.28-0.17,0.32-0.35c0.02-0.08-0.02-0.22-0.07-0.26c-1.03-0.78-2-1.65-3.1-2.29c-2.27-1.32-4.49-2.72-6.57-4.36
		c-2.31-1.81-4.37-3.93-6.44-6.03c-3.32-3.38-6.62-6.79-9.45-10.69c-2.75-3.79-5.86-7.22-8.92-10.72c-1.75-2-3.63-3.79-5.94-5.01
		C171.34,124.18,170.53,123.78,169.72,123.37z"/>
	<path d="M196.08,179.65c-1.5-0.15-2.83-0.71-4.16-1.25c-3.76-1.53-7.52-3.07-11.28-4.63c-1.9-0.79-3.61-1.93-5.2-3.3
		c-2.23-1.92-4.49-3.8-6.96-5.38c-1.34-0.86-2.44-2.06-3.47-3.31c-1.43-1.73-2.86-3.47-4.17-5.3c-1.95-2.72-2.97-5.9-3.41-9.32
		c-0.17-1.34-0.23-2.71-0.32-4.06c-0.05-0.8,0.12-1.58,0.49-2.29c0.6-1.16,1.74-1.56,2.74-0.87c1.05,0.71,2.02,1.55,2.69,2.7
		c1.65,2.85,3.74,5.27,6.09,7.43c2.37,2.18,4.93,4.07,7.51,5.95c2.93,2.14,5.86,4.3,8.78,6.45c2.65,1.95,5.49,3.53,8.38,5
		c2.27,1.16,4.53,2.33,6.78,3.54c0.72,0.39,1.39,0.89,2.07,1.34c1.26,0.84,2.08,2.1,2.65,3.55c0.47,1.18-0.09,2.4-1.27,2.9
		c-1.2,0.51-2.45,0.78-3.72,0.91C198.87,179.89,197.44,179.84,196.08,179.65z M159.39,142.66c-0.03,0.02-0.07,0.04-0.1,0.06
		c0,0.09-0.01,0.19-0.01,0.28c0.05,0.83,0.09,1.67,0.16,2.5c0.3,3.27,1.07,6.37,2.74,9.11c1.33,2.19,2.92,4.14,4.64,5.98
		c2.04,2.18,4.26,4.13,6.51,6.06c2.85,2.46,5.9,4.55,9.24,6.15c3.34,1.61,6.79,2.88,10.35,3.85c2.5,0.68,5.05,0.99,7.66,0.63
		c0.93-0.13,1.84-0.34,2.77-0.51c0.01-0.04,0.02-0.08,0.02-0.12c-0.45-0.59-0.9-1.18-1.35-1.76c-0.09-0.11-0.22-0.2-0.34-0.27
		c-3.28-1.87-6.54-3.76-9.85-5.58c-1.94-1.07-3.96-1.99-5.77-3.32c-4.23-3.13-8.47-6.26-12.67-9.45
		c-4.11-3.13-7.91-6.64-11.31-10.65C161.22,144.61,160.29,143.65,159.39,142.66z"/>
	<path d="M215.36,143.98c-2.99-0.53-5.71-1.72-8.15-3.62c-2.19-1.71-4.36-3.44-6.51-5.21c-2-1.64-3.84-3.48-5.36-5.66
		c-0.14-0.21-0.31-0.41-0.5-0.56c-0.96-0.78-1.66-1.82-2.4-2.83c-3.27-4.43-6.31-9.06-9.41-13.64c-0.29-0.43-0.53-0.93-0.67-1.44
		c-0.25-0.87,0.18-1.68,1.01-1.88c0.72-0.18,1.46-0.3,2.19-0.32c0.46-0.02,0.94,0.12,1.37,0.3c2.62,1.13,4.81,2.89,6.69,5.17
		c3.48,4.23,7.19,8.21,11.24,11.81c3.63,3.21,7.51,5.99,11.69,8.32c1.77,0.99,3.47,2.13,5.18,3.23c0.78,0.5,1.38,1.18,1.38,2.25
		c0,1.62-0.88,3.06-2.26,3.72c-1.1,0.52-2.25,0.62-3.42,0.55C216.74,144.13,216.05,144.05,215.36,143.98z M184.72,111.23
		c0.33,0.55,0.63,1.13,1.01,1.65c2,2.76,3.99,5.52,6.03,8.24c1.61,2.14,3.2,4.31,4.94,6.31c2.68,3.07,5.6,5.86,8.73,8.4
		c1.5,1.22,2.97,2.46,4.63,3.44c2.6,1.53,5.37,2.43,8.38,2.47c1.06,0.01,1.96-0.39,2.65-1.42c-0.38-0.36-0.7-0.77-1.12-1.04
		c-1.75-1.12-3.51-2.25-5.31-3.28c-5.66-3.23-10.8-7.23-15.39-12.03c-2.52-2.63-4.92-5.4-7.37-8.13c-1-1.11-1.98-2.23-3.23-3.02
		C187.46,112.05,186.15,111.51,184.72,111.23z"/>
	<path d="M183.92,199.3c-1.16-0.18-2.36-0.73-3.59-1.18c-5.49-2.02-10.01-5.63-14.06-9.98c-3.04-3.25-5.65-6.89-8.12-10.66
		c-1.19-1.81-2.42-3.58-4.09-4.92c-0.3-0.24-0.61-0.45-0.92-0.67c-0.88-0.62-1.52-1.42-1.53-2.64c-0.01-1.54,1.25-2.8,2.65-2.7
		c0.79,0.06,1.51,0.35,2.13,0.85c1.08,0.87,2.15,1.77,3.17,2.72c2.4,2.22,4.76,4.49,7.15,6.72c2.28,2.13,4.78,3.9,7.46,5.39
		c2.88,1.6,5.81,3.08,8.73,4.61c2.93,1.54,5.71,3.34,8.46,5.22c0.21,0.14,0.41,0.31,0.6,0.49c0.91,0.88,1.11,1.84,0.66,3.09
		c-0.73,2.03-2.05,3.25-4.06,3.5C187.06,199.32,185.56,199.5,183.92,199.3z M156.67,170.81c-0.02,0.02-0.04,0.04-0.06,0.07
		c0.15,0.31,0.28,0.63,0.46,0.92c0.96,1.56,1.93,3.12,2.9,4.67c3.07,4.93,6.65,9.37,10.94,13.09c2.62,2.27,5.37,4.34,8.49,5.79
		c2.62,1.22,5.36,1.73,8.24,1.41c1.17-0.13,2.15-0.67,2.82-1.77c0.06-0.1,0.1-0.31,0.05-0.36c-0.65-0.73-1.22-1.59-2-2.11
		c-1.62-1.1-3.31-2.11-5.03-3.01c-2.29-1.2-4.65-2.22-6.95-3.38c-3.8-1.91-7.42-4.15-10.66-7.04c-2.57-2.29-5.08-4.66-7.62-6.99
		C157.74,171.63,157.2,171.23,156.67,170.81z"/>
	<path d="M198.52,100.23c0.05-0.27,0.09-0.54,0.14-0.82c0.18-1.09,0.97-1.65,1.93-1.29c1.83,0.68,3.59,1.51,5.03,2.93
		c1.36,1.35,2.72,2.72,4.06,4.09c1.86,1.9,4,3.36,6.23,4.69c2.32,1.39,4.65,2.75,6.94,4.17c1.2,0.75,2.29,1.67,3.17,2.86
		c1.15,1.55,1.69,3.35,1.62,5.36c-0.03,0.85-0.45,1.42-1.2,1.68c-0.81,0.29-1.63,0.31-2.46,0.27c-3.13-0.15-5.84-1.46-8.26-3.43
		c-1.98-1.61-3.87-3.37-5.72-5.15c-2.88-2.77-5.7-5.61-8.52-8.45c-0.49-0.5-0.85-1.16-1.28-1.74c-0.4-0.55-0.77-1.11-1.2-1.63
		c-0.6-0.72-0.78-1.57-0.67-2.51C198.38,100.91,198.45,100.57,198.52,100.23C198.51,100.23,198.51,100.23,198.52,100.23z
		 M201.06,101.02c-0.19,1.47,0.2,2.58,0.99,3.52c1.13,1.33,2.25,2.66,3.43,3.93c3.78,4.06,8.01,7.54,12.36,10.86
		c1.89,1.44,3.97,2.35,6.36,2.34c0.54,0,1.08-0.06,1.68-0.09c-0.35-0.73-0.69-1.37-0.98-2.03c-0.64-1.46-1.65-2.51-2.94-3.3
		c-2.61-1.61-5.23-3.21-7.8-4.89c-2.88-1.89-5.54-4.07-7.95-6.63c-0.77-0.82-1.6-1.6-2.5-2.26
		C202.9,101.88,201.98,101.51,201.06,101.02z"/>
	<path d="M150.26,184.1c0.86-0.22,1.61-0.45,2.36-0.6c0.75-0.15,1.41,0.09,1.92,0.68c0.64,0.74,1.25,1.51,1.85,2.28
		c1.09,1.38,2.12,2.81,3.25,4.16c1.91,2.28,4.29,3.83,6.85,5.15c2.43,1.25,4.82,2.61,7.21,3.95c1.55,0.87,2.56,2.28,3.23,3.99
		c0.04,0.1,0.05,0.27,0,0.36c-1.12,1.81-2.55,3.15-4.59,3.53c-1.33,0.25-2.6-0.02-3.79-0.63c-2.76-1.4-5.44-2.95-7.88-4.93
		c-2.7-2.19-4.93-4.84-6.45-8.14c-0.94-2.05-1.92-4.09-2.79-6.18C150.97,186.58,150.67,185.37,150.26,184.1z M174.77,204.11
		c-0.31-0.47-0.57-0.9-0.87-1.31c-0.14-0.2-0.31-0.4-0.51-0.54c-1.12-0.75-2.22-1.55-3.39-2.19c-1.69-0.93-3.45-1.7-5.15-2.62
		c-3.49-1.89-6.58-4.33-8.93-7.77c-0.3-0.44-0.77-0.75-1.17-1.12c-0.03,0.03-0.07,0.06-0.1,0.1c0.27,0.8,0.52,1.61,0.81,2.39
		c1.22,3.28,2.98,6.14,5.66,8.19c1.97,1.51,4.03,2.89,6.05,4.31c0.96,0.67,2,1.15,3.14,1.36
		C171.86,205.19,173.32,204.87,174.77,204.11z"/>
	<path d="M184.74,100.31c-0.01-0.07-0.01-0.08-0.01-0.09c0.38-1.6,0.13-1.2,1.4-1.92c3.11-1.74,6.26-3.36,9.57-4.54
		c3.44-1.23,6.94-1.92,10.54-1.72c2.16,0.12,4.26,0.56,6.28,1.34c1.87,0.72,3.71,1.55,5.54,2.37c1.08,0.49,1.45,1.61,0.99,2.84
		c-0.87-0.16-1.71-0.41-2.51-0.84c-6.64-3.51-13.56-3.99-20.74-1.52c-2.28,0.78-4.44,1.87-6.58,3c-0.9,0.47-1.84,0.86-2.75,1.32
		c-0.42,0.21-0.81,0.21-1.2-0.01C185.11,100.46,184.92,100.39,184.74,100.31z"/>
	<path d="M183.62,177.16c-0.76,0.28-1.5,0.41-2.26,0.43c-1.53,0.05-2.95-0.41-4.35-0.97c-4.56-1.85-8.69-4.48-12.22-8.08
		c-1.72-1.76-3.33-3.66-4.98-5.51c-0.43-0.48-0.83-1-1.27-1.47c-0.62-0.66-0.87-1.54-1.19-2.37c0.9-0.45,1.73-0.3,2.45,0.48
		c0.78,0.84,1.52,1.72,2.29,2.57c1.89,2.13,3.76,4.3,5.89,6.17c2.53,2.22,5.37,3.89,8.39,5.22c0.94,0.41,1.84,0.92,2.75,1.4
		c0.74,0.38,1.45,0.81,2.2,1.17C182.06,176.53,182.82,176.82,183.62,177.16z"/>
	<path d="M172.08,144.27c0.62-1.08,1.51-1.24,2.28-0.35c0.83,0.96,1.64,1.95,2.4,2.99c3.38,4.65,7.59,8.25,12.25,11.27
		c2.05,1.33,4.13,2.59,6.19,3.88c0.1,0.06,0.21,0.13,0.31,0.2c0.63,0.44,0.63,0.44,0.3,1.27c-0.5-0.13-1-0.28-1.51-0.39
		c-2.7-0.58-5.01-2.05-7.32-3.52c-4.38-2.79-8.14-6.37-11.31-10.68c-1.06-1.44-2.17-2.83-3.26-4.24
		C172.29,144.55,172.18,144.41,172.08,144.27z"/>
	<path d="M195,196.66c0.22-0.77,0.58-1.44,1.02-2.07c0.32-0.45,0.64-0.91,1.02-1.3c1.32-1.33,2.34-2.92,3.43-4.46
		c2.87-4.05,5.23-8.44,7.69-12.77c0.78-1.37,1.58-2.73,2.35-4.1c0.14-0.24,0.27-0.29,0.51-0.23c0.85,0.24,1.18,0.87,0.8,1.76
		c-0.44,1.02-0.91,2.02-1.47,2.97c-2.97,4.97-6,9.9-8.97,14.87c-0.96,1.61-2.17,2.93-3.55,4.12
		C196.99,196.19,196.1,196.6,195,196.66z"/>
	<path d="M179.23,116.39c0.63,0.33,1.3,0.57,1.84,0.99c1.68,1.33,3.33,2.7,4.94,4.12c0.48,0.42,0.82,1.04,1.2,1.58
		c1.02,1.41,2.07,2.8,3.05,4.25c0.66,0.97,1.21,2.02,1.82,3.02c0.85,1.4,1.72,2.79,2.58,4.18c0.08,0.13,0.15,0.25,0.23,0.37
		c-0.38,0.48-0.39,0.51-0.89,0.27c-0.32-0.15-0.64-0.36-0.89-0.62c-1.13-1.22-2.24-2.48-3.36-3.71c-1.64-1.8-3-3.85-4.45-5.83
		c-1.58-2.17-3.36-4.14-5.42-5.8c-0.1-0.08-0.21-0.17-0.31-0.26C178.82,118.25,178.69,117.47,179.23,116.39z"/>
	<path d="M217.03,131.36c-0.13,0.15-0.23,0.25-0.31,0.37c-0.14,0.21-0.28,0.22-0.48,0.09c-1.34-0.81-2.7-1.58-4.02-2.43
		c-5.1-3.3-9.46-7.48-12.92-12.74c-0.08-0.12-0.16-0.25-0.24-0.38c-0.02-0.03-0.03-0.06-0.06-0.14c0.54-0.02,1.05-0.04,1.56-0.04
		c0.11,0,0.25,0.09,0.33,0.19c2.45,2.96,5.27,5.48,8.15,7.92c2.2,1.86,4.41,3.73,6.59,5.62
		C216.14,130.27,216.56,130.84,217.03,131.36z"/>
	<path d="M164.13,210.61c-1.15-0.16-2.18-0.48-3.18-0.9c-2.65-1.13-4.97-2.82-7.12-4.81c-3.08-2.85-5.66-6.16-7.66-9.99
		c-0.07-0.13-0.13-0.27-0.23-0.46c0.51-0.03,0.99-0.1,1.45-0.06c0.25,0.02,0.53,0.18,0.71,0.38c0.27,0.31,0.52,0.67,0.69,1.06
		c0.97,2.18,2.36,3.99,4.04,5.54c2.51,2.33,5.25,4.32,8.03,6.24c0.64,0.44,1.27,0.92,1.92,1.34
		C163.37,209.34,163.73,209.93,164.13,210.61z"/>
	<path d="M152.31,149.24c0.05,0.05,0.07,0.07,0.1,0.1c0.72,0.66,0.68,1.39,0.34,2.34c-1.22,3.39-2.34,6.81-3.5,10.22
		c-0.02,0.07-0.05,0.13-0.13,0.3c-0.07-0.34-0.13-0.58-0.17-0.82c-0.21-1.35-0.09-2.7,0.16-4.03c0.54-2.83,1.56-5.45,3.04-7.87
		C152.2,149.4,152.25,149.33,152.31,149.24z"/>
	<path d="M169.25,132.15c0.04,0.05,0.05,0.06,0.07,0.08c0.85,1.02,0.74,2.18,0.32,3.39c-0.65,1.9-1.27,3.81-1.95,5.7
		c-0.2,0.55-0.58,1.02-0.92,1.6c-0.34-0.73-0.52-1.41-0.43-2.13c0.09-0.74,0.24-1.49,0.43-2.21c0.42-1.59,0.89-3.16,1.3-4.75
		C168.27,133.09,168.73,132.62,169.25,132.15z"/>
	<path d="M163.04,137.99c-0.07-0.01-0.1-0.01-0.13-0.02c-0.82-0.43-0.75-0.12-0.57-1.18c0.36-2.1,1.22-4,2.27-5.8
		c0.26-0.45,0.54-0.89,0.8-1.34c0.11-0.19,0.24-0.27,0.44-0.25c0.41,0.05,0.83,0.1,1.3,0.15
		C165.76,132.39,164.41,135.18,163.04,137.99z"/>
	<path d="M222.23,101.39c0.48,0.29,0.91,0.54,1.34,0.8c0.26,0.15,0.38,0.37,0.42,0.7c0.17,1.31,0.31,2.62,0.15,3.96
		c-0.19,1.55-0.75,2.93-1.68,4.25C222.38,107.82,222.31,104.63,222.23,101.39z"/>
	<path d="M171.56,139.49c0.18,0.26,0.4,0.48,0.52,0.75c0.1,0.24,0.16,0.54,0.13,0.81c-0.1,1.02-0.21,2.05-0.37,3.07
		c-0.14,0.92-0.5,1.74-1.12,2.42c-0.26,0.29-0.5,0.41-0.84,0.22c-0.1-0.06-0.23-0.08-0.38-0.14c0.05-0.31,0.1-0.61,0.15-0.92
		c0.26-1.52,0.53-3.05,0.78-4.57c0.09-0.57,0.32-1.01,0.77-1.34C171.34,139.7,171.47,139.57,171.56,139.49z"/>
	<path d="M194.42,100.3c-0.26,0.64-0.59,1.2-1.05,1.64c-0.8,0.76-1.64,1.45-2.47,2.16c-0.46,0.39-0.95,0.73-1.38,1.15
		c-0.42,0.41-0.79,0.88-1.2,1.33c-0.08-0.66,0-1.32,0.23-1.96c0.35-0.98,0.98-1.72,1.75-2.33c1.21-0.96,2.58-1.52,3.98-1.99
		C194.32,100.29,194.35,100.3,194.42,100.3z"/>
	<path d="M212.11,153.31c0.94-2.62,1.89-5.24,2.83-7.86c0.72,0.33,1.15,1.26,1.05,2.23c-0.07,0.74-0.32,1.42-0.68,2.06
		C214.51,151.19,213.4,152.33,212.11,153.31z"/>
	<path d="M203.88,148.75c-0.04,0.01-0.05,0.01-0.06,0.01c-0.77-0.19-0.68,0-0.87-0.89c-0.16-0.75-0.08-1.51,0.18-2.23
		c0.46-1.25,0.97-2.48,1.51-3.84c0.36,0.57,0.67,1.05,0.95,1.55c0.07,0.11,0.09,0.31,0.05,0.44c-0.56,1.64-1.14,3.27-1.71,4.9
		C203.92,148.71,203.9,148.72,203.88,148.75z"/>
	<path d="M196.99,105.08c-0.26,1.68-3.13,4.45-4.76,4.57c0.48-1.49,0.98-2.95,2.23-3.91C195.13,105.23,196.16,104.96,196.99,105.08z
		"/>
	<path d="M209.8,144.83c0.02,0.02,0.03,0.02,0.04,0.03c0.79,1.41,0.71,1.01,0.2,2.38c-0.46,1.24-1,2.45-1.52,3.69
		c-0.27-0.09-0.52-0.15-0.74-0.26c-0.08-0.04-0.13-0.2-0.14-0.31c-0.06-1.08,0.19-2.12,0.51-3.14c0.15-0.47,0.34-0.92,0.46-1.4
		c0.11-0.42,0.34-0.66,0.71-0.79C209.48,144.98,209.64,144.9,209.8,144.83z"/>
	<path d="M186.83,177.71c0.68,1.16,0.75,2.37,0.15,3.56c-0.58,1.16-1.26,2.28-1.94,3.49c-0.45-1-0.59-1.93-0.19-2.86
		c0.6-1.4,1.27-2.77,1.92-4.14C186.77,177.74,186.8,177.73,186.83,177.71z"/>
	<path d="M201.04,109.49c-1.51,1.51-2.97,2.99-4.45,4.47C196.26,110.99,197.99,108.98,201.04,109.49z"/>
	<path d="M153.21,174.72c0.58,0.93,0.83,1.84,0.55,2.83c-0.22,0.8-0.55,1.57-0.83,2.36c-0.09,0.25-0.17,0.51-0.26,0.8
		c-0.75-0.98-1.14-2.03-0.65-3.28C152.37,176.53,152.78,175.67,153.21,174.72z"/>
	<path d="M218.99,104.54c0.11,0.11,0.2,0.2,0.28,0.29c0.73,0.78,0.75,0.78,0.42,1.85c-0.25,0.81-0.53,1.61-0.81,2.44
		c-0.32-0.03-0.62-0.07-1-0.11c0.07-1.18,0.13-2.33,0.23-3.48c0.02-0.18,0.2-0.37,0.33-0.52
		C218.61,104.85,218.79,104.71,218.99,104.54z"/>
	<path class="st0" d="M169.72,123.37c0.81,0.41,1.61,0.82,2.41,1.24c2.31,1.22,4.19,3.01,5.94,5.01c3.05,3.49,6.17,6.93,8.92,10.72
		c2.83,3.91,6.13,7.31,9.45,10.69c2.07,2.11,4.13,4.22,6.44,6.03c2.09,1.64,4.3,3.03,6.57,4.36c1.1,0.64,2.07,1.51,3.1,2.29
		c0.06,0.04,0.09,0.18,0.07,0.26c-0.04,0.17-0.11,0.3-0.32,0.35c-0.88,0.19-1.71-0.02-2.54-0.23c-4.31-1.1-8.47-2.65-12.4-4.83
		c-3.36-1.86-6.49-4.1-9.33-6.79c-1.26-1.19-2.45-2.48-3.69-3.7c-0.93-0.92-1.95-1.74-2.83-2.71c-1.64-1.8-2.89-3.93-3.98-6.16
		c-1.16-2.38-2.28-4.8-3.42-7.19c-1.43-2.99-2.88-5.98-4.32-8.96c-0.04-0.09-0.09-0.19-0.13-0.28
		C169.68,123.42,169.7,123.4,169.72,123.37z"/>
	<path class="st0" d="M159.39,142.66c0.9,0.99,1.83,1.95,2.7,2.97c3.4,4.01,7.21,7.53,11.31,10.65c4.19,3.19,8.43,6.32,12.67,9.45
		c1.8,1.34,3.82,2.25,5.77,3.32c3.3,1.82,6.57,3.71,9.85,5.58c0.12,0.07,0.25,0.16,0.34,0.27c0.46,0.58,0.9,1.17,1.35,1.76
		c-0.01,0.04-0.02,0.08-0.02,0.12c-0.92,0.17-1.84,0.38-2.77,0.51c-2.6,0.36-5.16,0.05-7.66-0.63c-3.55-0.97-7.01-2.25-10.35-3.85
		c-3.34-1.61-6.4-3.7-9.24-6.15c-2.24-1.93-4.47-3.88-6.51-6.06c-1.71-1.84-3.3-3.79-4.64-5.98c-1.67-2.74-2.44-5.84-2.74-9.11
		c-0.08-0.83-0.11-1.67-0.16-2.5c-0.01-0.09,0-0.19,0.01-0.28C159.32,142.7,159.36,142.68,159.39,142.66z"/>
	<path class="st0" d="M184.72,111.23c1.43,0.28,2.74,0.82,3.96,1.59c1.25,0.79,2.23,1.91,3.23,3.02c2.44,2.72,4.84,5.49,7.37,8.13
		c4.59,4.79,9.73,8.79,15.39,12.03c1.8,1.03,3.56,2.16,5.31,3.28c0.41,0.26,0.74,0.68,1.12,1.04c-0.69,1.03-1.59,1.43-2.65,1.42
		c-3.01-0.03-5.78-0.94-8.38-2.47c-1.66-0.97-3.13-2.22-4.63-3.44c-3.13-2.54-6.05-5.33-8.73-8.4c-1.75-2-3.34-4.17-4.94-6.31
		c-2.04-2.72-4.03-5.48-6.03-8.24C185.36,112.37,185.06,111.78,184.72,111.23z"/>
	<path class="st0" d="M156.67,170.81c0.53,0.43,1.07,0.82,1.58,1.28c2.55,2.32,5.06,4.69,7.62,6.99c3.23,2.89,6.86,5.12,10.66,7.04
		c2.3,1.16,4.67,2.19,6.95,3.38c1.73,0.9,3.41,1.91,5.03,3.01c0.77,0.53,1.35,1.39,2,2.11c0.05,0.05,0.01,0.27-0.05,0.36
		c-0.68,1.1-1.65,1.64-2.82,1.77c-2.88,0.32-5.62-0.19-8.24-1.41c-3.11-1.45-5.87-3.52-8.49-5.79c-4.29-3.72-7.87-8.16-10.94-13.09
		c-0.97-1.55-1.94-3.11-2.9-4.67c-0.18-0.29-0.31-0.62-0.46-0.92C156.63,170.85,156.65,170.83,156.67,170.81z"/>
	<path class="st0" d="M201.06,101.02c0.92,0.49,1.84,0.86,2.63,1.44c0.9,0.65,1.73,1.44,2.5,2.26c2.41,2.55,5.07,4.74,7.95,6.63
		c2.57,1.68,5.19,3.29,7.8,4.89c1.29,0.79,2.3,1.84,2.94,3.3c0.29,0.66,0.62,1.3,0.98,2.03c-0.59,0.03-1.13,0.09-1.68,0.09
		c-2.38,0.02-4.47-0.89-6.36-2.34c-4.35-3.32-8.58-6.79-12.36-10.86c-1.18-1.27-2.3-2.61-3.43-3.93
		C201.26,103.6,200.87,102.49,201.06,101.02z"/>
	<path class="st0" d="M174.77,204.11c-1.46,0.76-2.91,1.08-4.45,0.8c-1.14-0.21-2.19-0.69-3.14-1.36c-2.03-1.42-4.08-2.8-6.05-4.31
		c-2.68-2.05-4.45-4.91-5.66-8.19c-0.29-0.79-0.54-1.6-0.81-2.39c0.03-0.03,0.07-0.06,0.1-0.1c0.39,0.37,0.86,0.68,1.17,1.12
		c2.35,3.43,5.44,5.88,8.93,7.77c1.7,0.92,3.46,1.69,5.15,2.62c1.17,0.65,2.27,1.45,3.39,2.19c0.2,0.13,0.37,0.33,0.51,0.54
		C174.2,203.21,174.46,203.64,174.77,204.11z"/>
</g>
<g>
	<path d="M109.57,123.24c-0.09-3.5,0.24-6.95,1.06-10.31c0.91-3.73,2.43-7.12,4.47-10.25c1.86-2.86,4.14-5.19,7-6.82
		c2.12-1.21,4.29-2.33,6.46-3.42c1.36-0.69,2.75-1.34,4.17-1.87c2.14-0.81,4.4-1.07,6.68-1.14c3.23-0.1,6.41,0.27,9.53,1.35
		c2.96,1.02,5.82,2.34,8.67,3.7c4.13,1.98,7.81,4.67,10.87,8.34c1.66,1.99,3.25,4.04,4.94,6c3.29,3.82,6.37,7.82,9.19,12.05
		c2.53,3.78,4.88,7.69,7.07,11.7c2.17,3.97,4.24,8,6.01,12.19c2.44,5.8,4.39,11.78,5.82,17.95c1.79,7.68,2.92,15.44,3.15,23.32
		c0.09,2.93-0.02,5.84-0.6,8.69c-0.69,3.39-1.97,6.46-4.13,9.03c-1.1,1.32-2.21,2.63-3.36,3.9c-3.63,4-7.61,7.54-12.05,10.45
		c-1.83,1.2-3.83,1.96-5.99,2.15c-2.72,0.25-5.42-0.11-8.09-0.8c-3.16-0.81-6.16-2.13-9.09-3.66c-5.1-2.67-9.78-6.03-13.91-10.28
		c-1.27-1.31-2.53-2.64-3.79-3.97c-0.06-0.07-0.11-0.15-0.17-0.23c-0.6-0.74-1.15-1.52-1.8-2.19c-2.18-2.24-4.1-4.69-5.7-7.45
		c-1.11-1.92-2.21-3.85-3.37-5.73c-1.91-3.11-3.89-6.16-5.78-9.28c-2.24-3.69-4.16-7.57-5.79-11.61c-0.58-1.45-1.33-2.83-1.88-4.29
		c-1.2-3.23-2.33-6.48-3.46-9.74c-1.1-3.18-2.08-6.4-2.78-9.7c-0.48-2.24-0.99-4.48-1.51-6.71c-0.43-1.83-0.88-3.66-1.33-5.49
		C109.81,127.17,109.62,125.21,109.57,123.24z M114.73,140.5c1.12,4.74,2.39,9.44,4,14.03c2.77,7.9,6.26,15.42,10.48,22.55
		c1.77,2.98,3.73,5.83,5.63,8.73c1.8,2.76,3.61,5.51,5.43,8.26c2.5,3.77,5.42,7.13,8.67,10.14c3.35,3.11,6.91,5.9,10.78,8.19
		c4.43,2.62,9.1,4.45,14.04,5.32c3.83,0.68,7.38-0.01,10.62-2.28c4.15-2.91,8-6.2,11.37-10.13c1.48-1.73,2.92-3.51,4.09-5.51
		c1.76-2.99,2.63-6.32,2.86-9.88c0.14-2.14-0.02-4.28-0.22-6.42c-0.36-3.76-0.68-7.53-1.16-11.28c-0.31-2.39-0.83-4.75-1.34-7.11
		c-0.78-3.62-1.75-7.18-2.96-10.66c-0.95-2.74-2.03-5.44-3.05-8.16c-0.36-0.96-0.64-1.97-1.12-2.87c-0.78-1.48-1.7-2.87-2.52-4.33
		c-0.84-1.49-1.77-2.94-2.4-4.53c-0.81-2.04-1.83-3.95-2.79-5.91c-1.23-2.52-2.85-4.75-4.53-6.93c-4.08-5.3-8.15-10.61-12.25-15.88
		c-2.9-3.72-6.43-6.6-10.4-8.82c-4.36-2.44-8.91-4.24-13.71-5.24c-3.63-0.75-7.21-0.55-10.66,0.71c-2.44,0.89-4.81,2.01-7.25,2.91
		c-2.89,1.06-5.12,3.1-7.15,5.43c-5.17,5.92-7.73,13.04-7.69,21.31c0.01,3.17,0.45,6.29,1.15,9.38
		C113.35,134.52,114.02,137.51,114.73,140.5z"/>
	<path class="st0" d="M111.51,122.15c-0.04-8.28,2.52-15.39,7.69-21.31c2.03-2.32,4.26-4.36,7.15-5.43c2.44-0.9,4.81-2.02,7.25-2.91
		c3.46-1.26,7.03-1.46,10.66-0.71c4.79,1,9.35,2.79,13.71,5.24c3.97,2.22,7.5,5.1,10.4,8.82c4.11,5.27,8.18,10.58,12.25,15.88
		c1.68,2.18,3.3,4.42,4.53,6.93c0.95,1.95,1.98,3.86,2.79,5.91c0.63,1.59,1.56,3.04,2.4,4.53c0.82,1.46,1.74,2.85,2.52,4.33
		c0.47,0.9,0.75,1.91,1.12,2.87c1.02,2.72,2.1,5.41,3.05,8.16c1.21,3.49,2.18,7.05,2.96,10.66c0.51,2.36,1.03,4.72,1.34,7.11
		c0.48,3.75,0.8,7.51,1.16,11.28c0.2,2.14,0.36,4.28,0.22,6.42c-0.24,3.56-1.1,6.89-2.86,9.88c-1.18,2-2.61,3.78-4.09,5.51
		c-3.37,3.93-7.22,7.22-11.37,10.13c-3.24,2.27-6.79,2.96-10.62,2.28c-4.95-0.88-9.61-2.71-14.04-5.32
		c-3.87-2.29-7.42-5.08-10.78-8.19c-3.25-3.02-6.17-6.37-8.67-10.14c-1.82-2.75-3.63-5.5-5.43-8.26c-1.89-2.9-3.86-5.75-5.63-8.73
		c-4.22-7.13-7.71-14.65-10.48-22.55c-1.61-4.59-2.88-9.29-4-14.03c-0.71-2.99-1.38-5.98-2.07-8.98
		C111.96,128.43,111.52,125.32,111.51,122.15z M171.8,125.1c-4.22,2.66-7.77,6.16-10.89,10.2c-2.2,2.85-4.32,5.77-6.57,8.58
		c-3.9,4.86-8.15,9.33-12.82,13.33c-1.67,1.43-3.55,2.52-5.37,3.69c-1.54,0.99-3.08,2.01-4.57,3.09c-0.68,0.49-1.29,1.12-1.85,1.78
		c-0.52,0.62-0.73,1.41-0.4,2.26c0.28,0.72,0.85,1.1,1.51,1.33c0.9,0.32,1.83,0.26,2.76,0.34c1.56,0.14,2.97-0.43,4.39-0.92
		c5.52-1.9,10.67-4.6,15.44-8.1c3.67-2.69,7.14-5.64,10.12-9.22c2.77-3.33,5.02-7.07,6.98-11.02c1.59-3.21,3.03-6.5,4.29-9.89
		c0.47-1.26,1.11-2.41,2.07-3.32c0.11-0.11,0.23-0.22,0.35-0.31c0.92-0.62,1.05-1.64,1.05-2.68c0-0.82-0.53-1.29-1.29-1.28
		c-0.16,0-0.33,0.03-0.39,0.04C174.81,123.39,173.28,124.17,171.8,125.1z M152.87,181.22c3.76-1.53,7.52-3.07,11.28-4.63
		c1.9-0.79,3.61-1.93,5.2-3.3c2.23-1.92,4.49-3.8,6.96-5.38c1.34-0.86,2.44-2.06,3.47-3.31c1.43-1.73,2.86-3.47,4.17-5.3
		c1.95-2.72,2.97-5.9,3.41-9.32c0.17-1.34,0.23-2.71,0.32-4.06c0.05-0.8-0.12-1.58-0.49-2.29c-0.6-1.16-1.74-1.56-2.74-0.87
		c-1.05,0.71-2.02,1.55-2.69,2.7c-1.65,2.85-3.74,5.27-6.09,7.43c-2.37,2.18-4.93,4.07-7.51,5.95c-2.93,2.14-5.86,4.3-8.78,6.45
		c-2.65,1.95-5.49,3.53-8.38,5c-2.27,1.16-4.53,2.33-6.78,3.54c-0.72,0.39-1.39,0.89-2.07,1.34c-1.26,0.84-2.08,2.1-2.65,3.55
		c-0.47,1.18,0.09,2.4,1.27,2.9c1.2,0.51,2.45,0.78,3.72,0.91c1.44,0.15,2.87,0.1,4.23-0.09
		C150.22,182.32,151.55,181.76,152.87,181.22z M137.58,143.19c2.19-1.71,4.36-3.44,6.51-5.21c2-1.64,3.84-3.48,5.36-5.66
		c0.14-0.21,0.31-0.41,0.5-0.56c0.96-0.78,1.66-1.82,2.4-2.83c3.27-4.43,6.31-9.06,9.41-13.64c0.29-0.43,0.53-0.93,0.67-1.44
		c0.25-0.87-0.18-1.68-1.01-1.88c-0.72-0.18-1.46-0.3-2.19-0.32c-0.46-0.02-0.94,0.12-1.37,0.3c-2.62,1.13-4.81,2.89-6.69,5.17
		c-3.48,4.23-7.19,8.21-11.24,11.81c-3.63,3.21-7.51,5.99-11.69,8.32c-1.77,0.99-3.47,2.13-5.18,3.23c-0.78,0.5-1.38,1.18-1.38,2.25
		c0,1.62,0.88,3.06,2.26,3.72c1.1,0.52,2.25,0.62,3.42,0.55c0.69-0.04,1.38-0.12,2.07-0.19
		C132.42,146.28,135.15,145.09,137.58,143.19z M164.47,200.94c5.49-2.02,10.01-5.63,14.06-9.98c3.04-3.25,5.65-6.89,8.12-10.66
		c1.19-1.81,2.42-3.58,4.09-4.92c0.3-0.24,0.61-0.45,0.92-0.67c0.88-0.62,1.52-1.42,1.53-2.64c0.01-1.54-1.25-2.8-2.65-2.7
		c-0.79,0.06-1.51,0.35-2.13,0.85c-1.08,0.87-2.15,1.77-3.17,2.72c-2.4,2.22-4.76,4.49-7.15,6.72c-2.28,2.13-4.78,3.9-7.46,5.39
		c-2.88,1.6-5.81,3.08-8.73,4.61c-2.93,1.54-5.71,3.34-8.46,5.22c-0.21,0.14-0.41,0.31-0.6,0.49c-0.91,0.88-1.11,1.84-0.66,3.09
		c0.73,2.03,2.05,3.25,4.06,3.5c1.49,0.19,2.99,0.37,4.63,0.17C162.04,201.94,163.24,201.39,164.47,200.94z M146.14,102.24
		c-0.18-1.09-0.97-1.65-1.93-1.29c-1.83,0.68-3.59,1.51-5.03,2.93c-1.36,1.35-2.72,2.72-4.06,4.09c-1.86,1.9-4,3.36-6.23,4.69
		c-2.32,1.39-4.65,2.75-6.94,4.17c-1.2,0.75-2.29,1.67-3.17,2.86c-1.15,1.55-1.69,3.35-1.62,5.36c0.03,0.85,0.45,1.42,1.2,1.68
		c0.81,0.28,1.63,0.31,2.46,0.27c3.13-0.15,5.84-1.46,8.26-3.43c1.98-1.61,3.87-3.37,5.72-5.15c2.88-2.77,5.7-5.61,8.52-8.45
		c0.49-0.5,0.85-1.16,1.28-1.74c0.4-0.55,0.77-1.11,1.2-1.63c0.6-0.72,0.78-1.57,0.67-2.51c-0.04-0.35-0.11-0.69-0.17-1.03
		c0,0,0,0-0.01,0C146.24,102.78,146.19,102.51,146.14,102.24z M192.17,186.32c-0.75-0.15-1.41,0.09-1.92,0.68
		c-0.64,0.74-1.25,1.51-1.85,2.28c-1.09,1.38-2.12,2.81-3.25,4.16c-1.91,2.28-4.29,3.83-6.85,5.15c-2.43,1.25-4.82,2.61-7.21,3.95
		c-1.55,0.87-2.56,2.28-3.23,3.99c-0.04,0.1-0.05,0.27,0,0.36c1.12,1.81,2.55,3.15,4.59,3.53c1.33,0.25,2.6-0.02,3.79-0.63
		c2.76-1.4,5.44-2.95,7.88-4.93c2.7-2.19,4.93-4.84,6.45-8.14c0.94-2.05,1.92-4.09,2.79-6.18c0.47-1.12,0.77-2.34,1.18-3.61
		C193.68,186.7,192.93,186.47,192.17,186.32z M160.06,103.05c-0.38-1.6-0.13-1.2-1.4-1.92c-3.11-1.74-6.26-3.36-9.57-4.54
		c-3.44-1.23-6.94-1.92-10.54-1.72c-2.16,0.12-4.26,0.56-6.28,1.34c-1.87,0.72-3.71,1.55-5.54,2.37c-1.08,0.49-1.45,1.61-0.99,2.84
		c0.87-0.16,1.71-0.41,2.51-0.84c6.64-3.51,13.56-3.99,20.74-1.52c2.28,0.78,4.44,1.87,6.58,3c0.9,0.47,1.84,0.86,2.75,1.32
		c0.42,0.21,0.81,0.21,1.2-0.01c0.17-0.09,0.36-0.16,0.54-0.24C160.06,103.07,160.06,103.06,160.06,103.05z M163.44,180.41
		c1.53,0.05,2.95-0.41,4.35-0.97c4.56-1.85,8.69-4.48,12.22-8.08c1.72-1.76,3.33-3.66,4.98-5.51c0.43-0.48,0.83-1,1.27-1.47
		c0.62-0.66,0.87-1.54,1.19-2.37c-0.9-0.45-1.73-0.3-2.45,0.48c-0.78,0.84-1.52,1.72-2.29,2.57c-1.89,2.13-3.76,4.3-5.89,6.17
		c-2.53,2.22-5.37,3.89-8.39,5.22c-0.94,0.41-1.84,0.92-2.75,1.4c-0.74,0.38-1.45,0.81-2.2,1.17c-0.74,0.35-1.5,0.64-2.31,0.97
		C161.93,180.26,162.67,180.39,163.44,180.41z M170.44,146.75c-0.83,0.96-1.64,1.95-2.4,2.99c-3.38,4.65-7.59,8.25-12.25,11.27
		c-2.05,1.33-4.13,2.59-6.19,3.88c-0.1,0.06-0.21,0.13-0.31,0.2c-0.63,0.44-0.63,0.44-0.3,1.27c0.5-0.13,1-0.28,1.51-0.39
		c2.7-0.58,5.01-2.05,7.32-3.52c4.38-2.79,8.14-6.37,11.31-10.68c1.06-1.44,2.17-2.83,3.26-4.24c0.11-0.14,0.22-0.29,0.32-0.43
		C172.1,146.01,171.22,145.85,170.44,146.75z M148.77,197.42c-0.32-0.45-0.64-0.91-1.02-1.3c-1.32-1.33-2.34-2.92-3.43-4.46
		c-2.87-4.05-5.23-8.44-7.69-12.77c-0.78-1.37-1.58-2.73-2.35-4.1c-0.14-0.24-0.27-0.29-0.51-0.23c-0.85,0.24-1.18,0.87-0.8,1.76
		c0.44,1.02,0.91,2.02,1.47,2.97c2.97,4.97,6,9.9,8.97,14.87c0.96,1.61,2.17,2.93,3.55,4.12c0.85,0.73,1.74,1.14,2.83,1.2
		C149.58,198.72,149.21,198.04,148.77,197.42z M163.72,120.2c-1.68,1.33-3.33,2.7-4.94,4.12c-0.48,0.42-0.82,1.04-1.2,1.58
		c-1.02,1.41-2.07,2.8-3.05,4.25c-0.66,0.97-1.21,2.02-1.82,3.02c-0.85,1.4-1.72,2.79-2.58,4.18c-0.08,0.13-0.15,0.25-0.23,0.37
		c0.38,0.48,0.39,0.51,0.89,0.27c0.32-0.15,0.64-0.36,0.89-0.62c1.13-1.22,2.24-2.48,3.36-3.71c1.64-1.8,3-3.85,4.45-5.83
		c1.58-2.17,3.36-4.14,5.42-5.8c0.1-0.08,0.21-0.17,0.31-0.26c0.76-0.69,0.89-1.47,0.34-2.55
		C164.94,119.54,164.26,119.78,163.72,120.2z M128.07,134.55c0.14,0.21,0.28,0.22,0.48,0.09c1.34-0.81,2.7-1.58,4.02-2.43
		c5.1-3.3,9.46-7.48,12.92-12.74c0.08-0.12,0.16-0.25,0.24-0.38c0.02-0.03,0.03-0.06,0.06-0.14c-0.54-0.02-1.05-0.04-1.56-0.04
		c-0.11,0-0.25,0.09-0.33,0.19c-2.45,2.96-5.27,5.48-8.15,7.92c-2.2,1.86-4.41,3.73-6.59,5.62c-0.51,0.44-0.93,1.01-1.4,1.53
		C127.89,134.33,127.99,134.43,128.07,134.55z M183.84,212.53c2.65-1.13,4.97-2.82,7.12-4.81c3.08-2.85,5.66-6.16,7.66-9.99
		c0.07-0.13,0.13-0.27,0.23-0.46c-0.51-0.03-0.99-0.1-1.45-0.06c-0.25,0.02-0.53,0.18-0.71,0.38c-0.27,0.31-0.52,0.67-0.69,1.06
		c-0.97,2.18-2.36,3.99-4.04,5.54c-2.51,2.33-5.25,4.32-8.03,6.24c-0.64,0.44-1.27,0.92-1.92,1.34c-0.59,0.39-0.95,0.98-1.35,1.65
		C181.82,213.27,182.85,212.95,183.84,212.53z M192.39,152.16c-0.72,0.66-0.68,1.39-0.34,2.34c1.22,3.39,2.34,6.81,3.5,10.22
		c0.02,0.07,0.05,0.13,0.13,0.3c0.07-0.34,0.13-0.58,0.17-0.82c0.21-1.35,0.09-2.7-0.16-4.03c-0.54-2.83-1.56-5.45-3.04-7.87
		c-0.04-0.07-0.09-0.13-0.15-0.23C192.44,152.11,192.41,152.14,192.39,152.16z M175.48,135.05c-0.85,1.02-0.74,2.18-0.32,3.39
		c0.65,1.9,1.27,3.81,1.95,5.7c0.2,0.55,0.58,1.02,0.92,1.6c0.34-0.73,0.52-1.41,0.43-2.13c-0.09-0.74-0.24-1.49-0.43-2.21
		c-0.42-1.59-0.89-3.16-1.3-4.75c-0.19-0.74-0.65-1.21-1.18-1.68C175.5,135.02,175.49,135.04,175.48,135.05z M181.89,140.79
		c0.82-0.43,0.75-0.12,0.57-1.18c-0.36-2.1-1.22-4-2.27-5.8c-0.26-0.45-0.54-0.89-0.8-1.34c-0.11-0.19-0.24-0.27-0.44-0.25
		c-0.41,0.05-0.83,0.1-1.3,0.15c1.38,2.84,2.74,5.63,4.1,8.45C181.83,140.81,181.86,140.81,181.89,140.79z M121.23,105.01
		c-0.26,0.15-0.38,0.37-0.42,0.7c-0.17,1.31-0.31,2.62-0.15,3.96c0.19,1.55,0.75,2.93,1.68,4.25c0.08-3.29,0.15-6.48,0.23-9.72
		C122.08,104.5,121.66,104.75,121.23,105.01z M172.72,143.06c-0.1,0.24-0.16,0.54-0.13,0.81c0.1,1.02,0.21,2.05,0.37,3.07
		c0.14,0.92,0.5,1.74,1.12,2.42c0.26,0.29,0.5,0.41,0.84,0.22c0.1-0.06,0.23-0.08,0.38-0.14c-0.05-0.31-0.1-0.61-0.15-0.92
		c-0.26-1.52-0.53-3.05-0.78-4.57c-0.09-0.57-0.32-1.01-0.77-1.34c-0.14-0.1-0.26-0.22-0.35-0.3
		C173.05,142.57,172.84,142.79,172.72,143.06z M151.43,104.76c0.8,0.76,1.64,1.45,2.47,2.16c0.46,0.39,0.95,0.73,1.38,1.15
		c0.42,0.41,0.79,0.88,1.2,1.33c0.08-0.66,0-1.32-0.23-1.96c-0.35-0.98-0.98-1.72-1.75-2.33c-1.21-0.96-2.58-1.52-3.98-1.99
		c-0.03-0.01-0.06,0-0.13,0C150.63,103.76,150.97,104.33,151.43,104.76z M129.85,148.27c-0.72,0.33-1.15,1.26-1.05,2.23
		c0.07,0.74,0.32,1.42,0.68,2.06c0.81,1.45,1.92,2.59,3.21,3.57C131.74,153.51,130.8,150.89,129.85,148.27z M140.98,151.58
		c0.77-0.19,0.68,0,0.87-0.89c0.16-0.75,0.08-1.51-0.18-2.23c-0.46-1.25-0.97-2.48-1.51-3.84c-0.36,0.57-0.67,1.05-0.95,1.55
		c-0.07,0.11-0.09,0.31-0.05,0.44c0.56,1.64,1.14,3.27,1.71,4.9c0.01,0.02,0.03,0.04,0.05,0.06
		C140.95,151.57,140.97,151.58,140.98,151.58z M152.56,112.48c-0.48-1.49-0.98-2.95-2.23-3.91c-0.66-0.51-1.69-0.78-2.52-0.66
		C148.06,109.58,150.93,112.35,152.56,112.48z M134.96,147.69c-0.79,1.41-0.71,1.01-0.2,2.38c0.46,1.24,1,2.45,1.52,3.69
		c0.27-0.09,0.52-0.15,0.74-0.26c0.08-0.04,0.13-0.2,0.14-0.31c0.06-1.08-0.19-2.12-0.51-3.14c-0.15-0.47-0.34-0.92-0.46-1.4
		c-0.11-0.42-0.34-0.66-0.71-0.79c-0.17-0.06-0.33-0.14-0.48-0.21C134.98,147.67,134.97,147.68,134.96,147.69z M157.82,184.1
		c0.58,1.16,1.26,2.28,1.94,3.49c0.45-1,0.59-1.93,0.19-2.86c-0.6-1.4-1.27-2.77-1.92-4.14c-0.01-0.02-0.04-0.03-0.07-0.05
		C157.29,181.69,157.22,182.9,157.82,184.1z M148.21,116.79c0.33-2.98-1.4-4.99-4.45-4.47C145.27,113.83,146.73,115.3,148.21,116.79
		z M191.04,180.37c0.22,0.8,0.55,1.57,0.83,2.36c0.09,0.25,0.17,0.51,0.26,0.8c0.75-0.98,1.14-2.03,0.65-3.28
		c-0.35-0.89-0.77-1.75-1.19-2.71C191.01,178.47,190.77,179.38,191.04,180.37z M125.52,107.65c-0.73,0.78-0.75,0.78-0.42,1.85
		c0.25,0.81,0.53,1.61,0.81,2.44c0.32-0.03,0.62-0.07,1-0.11c-0.07-1.18-0.13-2.33-0.23-3.48c-0.02-0.18-0.2-0.37-0.33-0.52
		c-0.15-0.17-0.34-0.31-0.54-0.49C125.69,107.47,125.61,107.56,125.52,107.65z"/>
	<path d="M177,122.97c0.76,0,1.29,0.46,1.29,1.28c0,1.04-0.13,2.06-1.05,2.68c-0.13,0.09-0.24,0.2-0.35,0.31
		c-0.96,0.9-1.6,2.05-2.07,3.32c-1.26,3.39-2.7,6.68-4.29,9.89c-1.96,3.95-4.21,7.68-6.98,11.02c-2.98,3.58-6.45,6.53-10.12,9.22
		c-4.77,3.5-9.92,6.2-15.44,8.1c-1.42,0.49-2.83,1.06-4.39,0.92c-0.92-0.09-1.86-0.02-2.76-0.34c-0.66-0.23-1.23-0.61-1.51-1.33
		c-0.33-0.85-0.13-1.64,0.4-2.26c0.55-0.66,1.17-1.28,1.85-1.78c1.49-1.08,3.03-2.1,4.57-3.09c1.83-1.18,3.7-2.27,5.37-3.69
		c4.67-3.99,8.93-8.46,12.82-13.33c2.25-2.81,4.37-5.73,6.57-8.58c3.11-4.04,6.67-7.54,10.89-10.2c1.48-0.93,3.01-1.71,4.81-2.09
		C176.67,123,176.84,122.97,177,122.97z M172.66,127.43c-2.31,1.22-4.19,3.01-5.94,5.01c-3.05,3.49-6.17,6.93-8.92,10.72
		c-2.83,3.91-6.13,7.31-9.45,10.69c-2.07,2.11-4.13,4.22-6.44,6.03c-2.09,1.64-4.3,3.03-6.57,4.36c-1.1,0.64-2.07,1.51-3.1,2.29
		c-0.06,0.04-0.09,0.18-0.07,0.26c0.04,0.17,0.11,0.3,0.32,0.35c0.88,0.19,1.71-0.02,2.54-0.23c4.31-1.1,8.47-2.65,12.4-4.83
		c3.36-1.86,6.49-4.1,9.33-6.79c1.26-1.19,2.45-2.48,3.69-3.7c0.93-0.92,1.95-1.74,2.83-2.71c1.64-1.8,2.89-3.93,3.98-6.16
		c1.16-2.38,2.28-4.8,3.42-7.19c1.43-2.99,2.88-5.98,4.32-8.96c0.04-0.09,0.09-0.19,0.13-0.28c-0.02-0.03-0.04-0.06-0.06-0.09
		C174.27,126.6,173.46,127.01,172.66,127.43z"/>
	<path d="M144.49,182.56c-1.27-0.13-2.52-0.41-3.72-0.91c-1.19-0.5-1.74-1.72-1.27-2.9c0.57-1.45,1.38-2.71,2.65-3.55
		c0.69-0.46,1.35-0.96,2.07-1.34c2.25-1.21,4.51-2.38,6.78-3.54c2.89-1.48,5.73-3.05,8.38-5c2.92-2.16,5.85-4.31,8.78-6.45
		c2.57-1.88,5.14-3.77,7.51-5.95c2.35-2.16,4.44-4.58,6.09-7.43c0.67-1.15,1.64-1.99,2.69-2.7c1.01-0.68,2.14-0.28,2.74,0.87
		c0.37,0.72,0.54,1.49,0.49,2.29c-0.08,1.36-0.15,2.72-0.32,4.06c-0.43,3.42-1.46,6.6-3.41,9.32c-1.32,1.83-2.75,3.57-4.17,5.3
		c-1.03,1.25-2.13,2.45-3.47,3.31c-2.47,1.58-4.73,3.45-6.96,5.38c-1.59,1.37-3.3,2.51-5.2,3.3c-3.75,1.56-7.51,3.1-11.28,4.63
		c-1.33,0.54-2.66,1.1-4.16,1.25C147.35,182.66,145.93,182.71,144.49,182.56z M182.72,148.45c-3.4,4.01-7.21,7.53-11.31,10.65
		c-4.19,3.19-8.43,6.32-12.67,9.45c-1.8,1.34-3.82,2.25-5.77,3.32c-3.3,1.82-6.57,3.71-9.85,5.58c-0.12,0.07-0.25,0.16-0.34,0.27
		c-0.46,0.58-0.9,1.17-1.35,1.76c0.01,0.04,0.02,0.08,0.02,0.12c0.92,0.17,1.84,0.38,2.77,0.51c2.6,0.36,5.16,0.05,7.66-0.63
		c3.55-0.97,7.01-2.25,10.35-3.85c3.34-1.61,6.4-3.7,9.24-6.15c2.24-1.93,4.47-3.88,6.51-6.06c1.71-1.84,3.3-3.79,4.64-5.98
		c1.67-2.74,2.44-5.84,2.74-9.11c0.08-0.83,0.11-1.67,0.16-2.5c0.01-0.09,0-0.19-0.01-0.28c-0.03-0.02-0.07-0.04-0.1-0.06
		C184.51,146.47,183.58,147.43,182.72,148.45z"/>
	<path d="M127.36,147c-1.16,0.07-2.32-0.03-3.42-0.55c-1.39-0.66-2.27-2.09-2.26-3.72c0-1.08,0.6-1.76,1.38-2.25
		c1.72-1.1,3.41-2.24,5.18-3.23c4.17-2.33,8.06-5.11,11.69-8.32c4.05-3.59,7.76-7.58,11.24-11.81c1.88-2.28,4.07-4.04,6.69-5.17
		c0.43-0.18,0.91-0.32,1.37-0.3c0.73,0.03,1.47,0.15,2.19,0.32c0.83,0.21,1.26,1.01,1.01,1.88c-0.15,0.51-0.38,1.02-0.67,1.44
		c-3.1,4.58-6.14,9.2-9.41,13.64c-0.74,1-1.44,2.05-2.4,2.83c-0.19,0.15-0.35,0.35-0.5,0.56c-1.52,2.18-3.37,4.01-5.36,5.66
		c-2.15,1.77-4.32,3.5-6.51,5.21c-2.43,1.9-5.16,3.09-8.15,3.62C128.74,146.87,128.06,146.96,127.36,147z M156.12,115.65
		c-1.25,0.79-2.23,1.91-3.23,3.02c-2.44,2.72-4.84,5.49-7.37,8.13c-4.59,4.79-9.73,8.79-15.39,12.03c-1.8,1.03-3.56,2.16-5.31,3.28
		c-0.41,0.26-0.74,0.68-1.12,1.04c0.69,1.03,1.59,1.43,2.65,1.42c3.01-0.03,5.78-0.94,8.38-2.47c1.66-0.97,3.13-2.22,4.63-3.44
		c3.13-2.54,6.05-5.33,8.73-8.4c1.75-2,3.34-4.17,4.94-6.31c2.04-2.72,4.03-5.48,6.03-8.24c0.37-0.52,0.67-1.1,1.01-1.65
		C158.64,114.33,157.34,114.88,156.12,115.65z"/>
	<path d="M156.25,201.96c-2.01-0.26-3.33-1.47-4.06-3.5c-0.45-1.26-0.25-2.22,0.66-3.09c0.19-0.18,0.39-0.35,0.6-0.49
		c2.75-1.87,5.53-3.68,8.46-5.22c2.91-1.53,5.85-3.01,8.73-4.61c2.67-1.48,5.18-3.26,7.46-5.39c2.39-2.23,4.75-4.5,7.15-6.72
		c1.02-0.95,2.09-1.85,3.17-2.72c0.62-0.49,1.34-0.79,2.13-0.85c1.41-0.11,2.66,1.16,2.65,2.7c-0.01,1.23-0.65,2.02-1.53,2.64
		c-0.31,0.22-0.62,0.43-0.92,0.67c-1.67,1.34-2.9,3.11-4.09,4.92c-2.47,3.77-5.08,7.41-8.12,10.66c-4.06,4.34-8.57,7.95-14.06,9.98
		c-1.23,0.45-2.43,1-3.59,1.18C159.23,202.33,157.74,202.15,156.25,201.96z M186.55,174.91c-2.55,2.32-5.06,4.69-7.62,6.99
		c-3.23,2.89-6.86,5.12-10.66,7.04c-2.3,1.16-4.67,2.19-6.95,3.38c-1.73,0.9-3.41,1.91-5.03,3.01c-0.77,0.53-1.35,1.39-2,2.11
		c-0.05,0.05-0.01,0.27,0.05,0.36c0.68,1.1,1.65,1.64,2.82,1.77c2.88,0.32,5.62-0.19,8.24-1.41c3.11-1.45,5.87-3.52,8.49-5.79
		c4.29-3.72,7.87-8.16,10.94-13.09c0.97-1.55,1.94-3.11,2.9-4.67c0.18-0.29,0.31-0.62,0.46-0.92c-0.02-0.02-0.04-0.04-0.06-0.07
		C187.6,174.06,187.05,174.45,186.55,174.91z"/>
	<path d="M146.29,103.05c0.06,0.34,0.13,0.68,0.17,1.03c0.11,0.95-0.07,1.79-0.67,2.51c-0.43,0.52-0.8,1.08-1.2,1.63
		c-0.42,0.58-0.78,1.24-1.28,1.74c-2.82,2.84-5.64,5.68-8.52,8.45c-1.85,1.78-3.74,3.54-5.72,5.15c-2.42,1.97-5.13,3.29-8.26,3.43
		c-0.83,0.04-1.65,0.02-2.46-0.27c-0.75-0.27-1.18-0.83-1.2-1.68c-0.06-2.01,0.47-3.81,1.62-5.36c0.88-1.19,1.97-2.11,3.17-2.86
		c2.3-1.42,4.63-2.78,6.94-4.17c2.23-1.34,4.37-2.79,6.23-4.69c1.35-1.37,2.7-2.74,4.06-4.09c1.44-1.43,3.2-2.26,5.03-2.93
		c0.96-0.36,1.75,0.2,1.93,1.29C146.19,102.51,146.24,102.78,146.29,103.05C146.28,103.05,146.29,103.05,146.29,103.05z
		 M141.1,105.28c-0.9,0.65-1.73,1.44-2.5,2.26c-2.41,2.55-5.07,4.74-7.95,6.63c-2.57,1.68-5.19,3.29-7.8,4.89
		c-1.29,0.79-2.3,1.84-2.94,3.3c-0.29,0.66-0.62,1.3-0.98,2.03c0.59,0.03,1.13,0.09,1.68,0.09c2.38,0.02,4.47-0.89,6.36-2.34
		c4.35-3.32,8.58-6.79,12.36-10.86c1.18-1.27,2.3-2.61,3.43-3.93c0.8-0.94,1.18-2.05,0.99-3.52
		C142.82,104.34,141.9,104.71,141.1,105.28z"/>
	<path d="M193.36,190.53c-0.88,2.09-1.85,4.13-2.79,6.18c-1.52,3.31-3.74,5.95-6.45,8.14c-2.44,1.98-5.12,3.53-7.88,4.93
		c-1.19,0.6-2.45,0.88-3.79,0.63c-2.03-0.38-3.46-1.72-4.59-3.53c-0.05-0.09-0.04-0.26,0-0.36c0.68-1.71,1.68-3.13,3.23-3.99
		c2.39-1.34,4.77-2.7,7.21-3.95c2.56-1.31,4.95-2.86,6.85-5.15c1.12-1.35,2.16-2.78,3.25-4.16c0.61-0.77,1.21-1.54,1.85-2.28
		c0.51-0.59,1.17-0.83,1.92-0.68c0.76,0.15,1.51,0.38,2.36,0.6C194.13,188.19,193.83,189.41,193.36,190.53z M174.48,207.73
		c1.14-0.21,2.19-0.69,3.14-1.36c2.03-1.42,4.08-2.8,6.05-4.31c2.68-2.05,4.45-4.91,5.66-8.19c0.29-0.79,0.54-1.6,0.81-2.39
		c-0.03-0.03-0.07-0.06-0.1-0.1c-0.39,0.37-0.86,0.68-1.17,1.12c-2.35,3.43-5.44,5.88-8.93,7.77c-1.7,0.92-3.46,1.69-5.15,2.62
		c-1.17,0.65-2.27,1.45-3.39,2.19c-0.2,0.13-0.37,0.33-0.51,0.54c-0.29,0.41-0.56,0.84-0.87,1.31
		C171.48,207.69,172.94,208.01,174.48,207.73z"/>
	<path d="M160.05,103.14c0.01-0.07,0.01-0.08,0.01-0.09c-0.38-1.6-0.13-1.2-1.4-1.92c-3.11-1.74-6.26-3.36-9.57-4.54
		c-3.44-1.23-6.94-1.92-10.54-1.72c-2.16,0.12-4.26,0.56-6.28,1.34c-1.87,0.72-3.71,1.55-5.54,2.37c-1.08,0.49-1.45,1.61-0.99,2.84
		c0.87-0.16,1.71-0.41,2.51-0.84c6.64-3.51,13.56-3.99,20.74-1.52c2.28,0.78,4.44,1.87,6.58,3c0.9,0.47,1.84,0.86,2.75,1.32
		c0.42,0.21,0.81,0.21,1.2-0.01C159.69,103.28,159.88,103.22,160.05,103.14z"/>
	<path d="M161.17,179.98c0.76,0.28,1.5,0.41,2.26,0.43c1.53,0.05,2.95-0.41,4.35-0.97c4.56-1.85,8.69-4.48,12.22-8.08
		c1.72-1.76,3.33-3.66,4.98-5.51c0.43-0.48,0.83-1,1.27-1.47c0.62-0.66,0.87-1.54,1.19-2.37c-0.9-0.45-1.73-0.3-2.45,0.48
		c-0.78,0.84-1.52,1.72-2.29,2.57c-1.89,2.13-3.76,4.3-5.89,6.17c-2.53,2.22-5.37,3.89-8.39,5.22c-0.94,0.41-1.84,0.92-2.75,1.4
		c-0.74,0.38-1.45,0.81-2.2,1.17C162.74,179.36,161.98,179.64,161.17,179.98z"/>
	<path d="M172.72,147.09c-0.62-1.08-1.51-1.24-2.28-0.35c-0.83,0.96-1.64,1.95-2.4,2.99c-3.38,4.65-7.59,8.25-12.25,11.27
		c-2.05,1.33-4.13,2.59-6.19,3.88c-0.1,0.06-0.21,0.13-0.31,0.2c-0.63,0.44-0.63,0.44-0.3,1.27c0.5-0.13,1-0.28,1.51-0.39
		c2.7-0.58,5.01-2.05,7.32-3.52c4.38-2.79,8.14-6.37,11.31-10.68c1.06-1.44,2.17-2.83,3.26-4.24
		C172.51,147.37,172.62,147.23,172.72,147.09z"/>
	<path d="M149.8,199.49c-0.22-0.77-0.58-1.44-1.02-2.07c-0.32-0.45-0.64-0.91-1.02-1.3c-1.32-1.33-2.34-2.92-3.43-4.46
		c-2.87-4.05-5.23-8.44-7.69-12.77c-0.78-1.37-1.58-2.73-2.35-4.1c-0.14-0.24-0.27-0.29-0.51-0.23c-0.85,0.24-1.18,0.87-0.8,1.76
		c0.44,1.02,0.91,2.02,1.47,2.97c2.97,4.97,6,9.9,8.97,14.87c0.96,1.61,2.17,2.93,3.55,4.12
		C147.81,199.02,148.7,199.42,149.8,199.49z"/>
	<path d="M165.56,119.21c-0.63,0.33-1.3,0.57-1.84,0.99c-1.68,1.33-3.33,2.7-4.94,4.12c-0.48,0.42-0.82,1.04-1.2,1.58
		c-1.02,1.41-2.07,2.8-3.05,4.25c-0.66,0.97-1.21,2.02-1.82,3.02c-0.85,1.4-1.72,2.79-2.58,4.18c-0.08,0.13-0.15,0.25-0.23,0.37
		c0.38,0.48,0.39,0.51,0.89,0.27c0.32-0.15,0.64-0.36,0.89-0.62c1.13-1.22,2.24-2.48,3.36-3.71c1.64-1.8,3-3.85,4.45-5.83
		c1.58-2.17,3.36-4.14,5.42-5.8c0.1-0.08,0.21-0.17,0.31-0.26C165.98,121.07,166.11,120.3,165.56,119.21z"/>
	<path d="M127.76,134.18c0.13,0.15,0.23,0.25,0.31,0.37c0.14,0.21,0.28,0.22,0.48,0.09c1.34-0.81,2.7-1.58,4.02-2.43
		c5.1-3.3,9.46-7.48,12.92-12.74c0.08-0.12,0.16-0.25,0.24-0.38c0.02-0.03,0.03-0.06,0.06-0.14c-0.54-0.02-1.05-0.04-1.56-0.04
		c-0.11,0-0.25,0.09-0.33,0.19c-2.45,2.96-5.27,5.48-8.15,7.92c-2.2,1.86-4.41,3.73-6.59,5.62
		C128.66,133.09,128.24,133.66,127.76,134.18z"/>
	<path d="M180.67,213.43c1.15-0.16,2.18-0.48,3.18-0.9c2.65-1.13,4.97-2.82,7.12-4.81c3.08-2.85,5.66-6.16,7.66-9.99
		c0.07-0.13,0.13-0.27,0.23-0.46c-0.51-0.03-0.99-0.1-1.45-0.06c-0.25,0.02-0.53,0.18-0.71,0.38c-0.27,0.31-0.52,0.67-0.69,1.06
		c-0.97,2.18-2.36,3.99-4.04,5.54c-2.51,2.33-5.25,4.32-8.03,6.24c-0.64,0.44-1.27,0.92-1.92,1.34
		C181.43,212.16,181.07,212.76,180.67,213.43z"/>
	<path d="M192.49,152.06c-0.05,0.05-0.07,0.07-0.1,0.1c-0.72,0.66-0.68,1.39-0.34,2.34c1.22,3.39,2.34,6.81,3.5,10.22
		c0.02,0.07,0.05,0.13,0.13,0.3c0.07-0.34,0.13-0.58,0.17-0.82c0.21-1.35,0.09-2.7-0.16-4.03c-0.54-2.83-1.56-5.45-3.04-7.87
		C192.6,152.22,192.55,152.16,192.49,152.06z"/>
	<path d="M175.54,134.97c-0.04,0.05-0.05,0.06-0.07,0.08c-0.85,1.02-0.74,2.18-0.32,3.39c0.65,1.9,1.27,3.81,1.95,5.7
		c0.2,0.55,0.58,1.02,0.92,1.6c0.34-0.73,0.52-1.41,0.43-2.13c-0.09-0.74-0.24-1.49-0.43-2.21c-0.42-1.59-0.89-3.16-1.3-4.75
		C176.53,135.91,176.07,135.44,175.54,134.97z"/>
	<path d="M181.76,140.82c0.07-0.01,0.1-0.01,0.13-0.02c0.82-0.43,0.75-0.12,0.57-1.18c-0.36-2.1-1.22-4-2.27-5.8
		c-0.26-0.45-0.54-0.89-0.8-1.34c-0.11-0.19-0.24-0.27-0.44-0.25c-0.41,0.05-0.83,0.1-1.3,0.15
		C179.03,135.21,180.39,138.01,181.76,140.82z"/>
	<path d="M122.57,104.21c-0.48,0.29-0.91,0.54-1.34,0.8c-0.26,0.15-0.38,0.37-0.42,0.7c-0.17,1.31-0.31,2.62-0.15,3.96
		c0.19,1.55,0.75,2.93,1.68,4.25C122.42,110.64,122.49,107.45,122.57,104.21z"/>
	<path d="M173.24,142.31c-0.18,0.26-0.4,0.48-0.52,0.75c-0.1,0.24-0.16,0.54-0.13,0.81c0.1,1.02,0.21,2.05,0.37,3.07
		c0.14,0.92,0.5,1.74,1.12,2.42c0.26,0.29,0.5,0.41,0.84,0.22c0.1-0.06,0.23-0.08,0.38-0.14c-0.05-0.31-0.1-0.61-0.15-0.92
		c-0.26-1.52-0.53-3.05-0.78-4.57c-0.09-0.57-0.32-1.01-0.77-1.34C173.45,142.52,173.33,142.4,173.24,142.31z"/>
	<path d="M150.38,103.12c0.26,0.64,0.59,1.2,1.05,1.64c0.8,0.76,1.64,1.45,2.47,2.16c0.46,0.39,0.95,0.73,1.38,1.15
		c0.42,0.41,0.79,0.88,1.2,1.33c0.08-0.66,0-1.32-0.23-1.96c-0.35-0.98-0.98-1.72-1.75-2.33c-1.21-0.96-2.58-1.52-3.98-1.99
		C150.48,103.11,150.45,103.12,150.38,103.12z"/>
	<path d="M132.68,156.13c-0.94-2.62-1.89-5.24-2.83-7.86c-0.72,0.33-1.15,1.26-1.05,2.23c0.07,0.74,0.32,1.42,0.68,2.06
		C130.28,154.02,131.4,155.16,132.68,156.13z"/>
	<path d="M140.92,151.57c0.04,0.01,0.05,0.01,0.06,0.01c0.77-0.19,0.68,0,0.87-0.89c0.16-0.75,0.08-1.51-0.18-2.23
		c-0.46-1.25-0.97-2.48-1.51-3.84c-0.36,0.57-0.67,1.05-0.95,1.55c-0.07,0.11-0.09,0.31-0.05,0.44c0.56,1.64,1.14,3.27,1.71,4.9
		C140.88,151.53,140.9,151.55,140.92,151.57z"/>
	<path d="M147.8,107.9c0.26,1.68,3.13,4.45,4.76,4.57c-0.48-1.49-0.98-2.95-2.23-3.91C149.66,108.05,148.64,107.78,147.8,107.9z"/>
	<path d="M135,147.65c-0.02,0.02-0.03,0.02-0.04,0.03c-0.79,1.41-0.71,1.01-0.2,2.38c0.46,1.24,1,2.45,1.52,3.69
		c0.27-0.09,0.52-0.15,0.74-0.26c0.08-0.04,0.13-0.2,0.14-0.31c0.06-1.08-0.19-2.12-0.51-3.14c-0.15-0.47-0.34-0.92-0.46-1.4
		c-0.11-0.42-0.34-0.66-0.71-0.79C135.32,147.8,135.16,147.72,135,147.65z"/>
	<path d="M157.97,180.53c-0.68,1.16-0.75,2.37-0.15,3.56c0.58,1.16,1.26,2.28,1.94,3.49c0.45-1,0.59-1.93,0.19-2.86
		c-0.6-1.4-1.27-2.77-1.92-4.14C158.03,180.56,158,180.55,157.97,180.53z"/>
	<path d="M143.76,112.32c1.51,1.51,2.97,2.99,4.45,4.47C148.54,113.81,146.81,111.8,143.76,112.32z"/>
	<path d="M191.59,177.54c-0.58,0.93-0.83,1.84-0.55,2.83c0.22,0.8,0.55,1.57,0.83,2.36c0.09,0.25,0.17,0.51,0.26,0.8
		c0.75-0.98,1.14-2.03,0.65-3.28C192.43,179.36,192.01,178.49,191.59,177.54z"/>
	<path d="M125.8,107.36c-0.11,0.11-0.2,0.2-0.28,0.29c-0.73,0.78-0.75,0.78-0.42,1.85c0.25,0.81,0.53,1.61,0.81,2.44
		c0.32-0.03,0.62-0.07,1-0.11c-0.07-1.18-0.13-2.33-0.23-3.48c-0.02-0.18-0.2-0.37-0.33-0.52C126.19,107.67,126,107.53,125.8,107.36
		z"/>
	<path class="st0" d="M175.08,126.19c-0.81,0.41-1.61,0.82-2.41,1.24c-2.31,1.22-4.19,3.01-5.94,5.01
		c-3.05,3.49-6.17,6.93-8.92,10.72c-2.83,3.91-6.13,7.31-9.45,10.69c-2.07,2.11-4.13,4.22-6.44,6.03c-2.09,1.64-4.3,3.03-6.57,4.36
		c-1.1,0.64-2.07,1.51-3.1,2.29c-0.06,0.04-0.09,0.18-0.07,0.26c0.04,0.17,0.11,0.3,0.32,0.35c0.88,0.19,1.71-0.02,2.54-0.23
		c4.31-1.1,8.47-2.65,12.4-4.83c3.36-1.86,6.49-4.1,9.33-6.79c1.26-1.19,2.45-2.48,3.69-3.7c0.93-0.92,1.95-1.74,2.83-2.71
		c1.64-1.8,2.89-3.93,3.98-6.16c1.16-2.38,2.28-4.8,3.42-7.19c1.43-2.99,2.88-5.98,4.32-8.96c0.04-0.09,0.09-0.19,0.13-0.28
		C175.11,126.25,175.1,126.22,175.08,126.19z"/>
	<path class="st0" d="M185.41,145.48c-0.9,0.99-1.83,1.95-2.7,2.97c-3.4,4.01-7.21,7.53-11.31,10.65
		c-4.19,3.19-8.43,6.32-12.67,9.45c-1.8,1.34-3.82,2.25-5.77,3.32c-3.3,1.82-6.57,3.71-9.85,5.58c-0.12,0.07-0.25,0.16-0.34,0.27
		c-0.46,0.58-0.9,1.17-1.35,1.76c0.01,0.04,0.02,0.08,0.02,0.12c0.92,0.17,1.84,0.38,2.77,0.51c2.6,0.36,5.16,0.05,7.66-0.63
		c3.55-0.97,7.01-2.25,10.35-3.85c3.34-1.61,6.4-3.7,9.24-6.15c2.24-1.93,4.47-3.88,6.51-6.06c1.71-1.84,3.3-3.79,4.64-5.98
		c1.67-2.74,2.44-5.84,2.74-9.11c0.08-0.83,0.11-1.67,0.16-2.5c0.01-0.09,0-0.19-0.01-0.28
		C185.48,145.53,185.44,145.5,185.41,145.48z"/>
	<path class="st0" d="M160.07,114.06c-1.43,0.28-2.74,0.82-3.96,1.59c-1.25,0.79-2.23,1.91-3.23,3.02
		c-2.44,2.72-4.84,5.49-7.37,8.13c-4.59,4.79-9.73,8.79-15.39,12.03c-1.8,1.03-3.56,2.16-5.31,3.28c-0.41,0.26-0.74,0.68-1.12,1.04
		c0.69,1.03,1.59,1.43,2.65,1.42c3.01-0.03,5.78-0.94,8.38-2.47c1.66-0.97,3.13-2.22,4.63-3.44c3.13-2.54,6.05-5.33,8.73-8.4
		c1.75-2,3.34-4.17,4.94-6.31c2.04-2.72,4.03-5.48,6.03-8.24C159.44,115.19,159.74,114.61,160.07,114.06z"/>
	<path class="st0" d="M188.13,173.63c-0.53,0.43-1.07,0.82-1.58,1.28c-2.55,2.32-5.06,4.69-7.62,6.99
		c-3.23,2.89-6.86,5.12-10.66,7.04c-2.3,1.16-4.67,2.19-6.95,3.38c-1.73,0.9-3.41,1.91-5.03,3.01c-0.77,0.53-1.35,1.39-2,2.11
		c-0.05,0.05-0.01,0.27,0.05,0.36c0.68,1.1,1.65,1.64,2.82,1.77c2.88,0.32,5.62-0.19,8.24-1.41c3.11-1.45,5.87-3.52,8.49-5.79
		c4.29-3.72,7.87-8.16,10.94-13.09c0.97-1.55,1.94-3.11,2.9-4.67c0.18-0.29,0.31-0.62,0.46-0.92
		C188.17,173.67,188.15,173.65,188.13,173.63z"/>
	<path class="st0" d="M143.74,103.84c-0.92,0.49-1.84,0.86-2.63,1.44c-0.9,0.65-1.73,1.44-2.5,2.26c-2.41,2.55-5.07,4.74-7.95,6.63
		c-2.57,1.68-5.19,3.29-7.8,4.89c-1.29,0.79-2.3,1.84-2.94,3.3c-0.29,0.66-0.62,1.3-0.98,2.03c0.59,0.03,1.13,0.09,1.68,0.09
		c2.38,0.02,4.47-0.89,6.36-2.34c4.35-3.32,8.58-6.79,12.36-10.86c1.18-1.27,2.3-2.61,3.43-3.93
		C143.54,106.42,143.93,105.31,143.74,103.84z"/>
	<path class="st0" d="M170.03,206.93c1.46,0.76,2.91,1.08,4.45,0.8c1.14-0.21,2.19-0.69,3.14-1.36c2.03-1.42,4.08-2.8,6.05-4.31
		c2.68-2.05,4.45-4.91,5.66-8.19c0.29-0.79,0.54-1.6,0.81-2.39c-0.03-0.03-0.07-0.06-0.1-0.1c-0.39,0.37-0.86,0.68-1.17,1.12
		c-2.35,3.43-5.44,5.88-8.93,7.77c-1.7,0.92-3.46,1.69-5.15,2.62c-1.17,0.65-2.27,1.45-3.39,2.19c-0.2,0.13-0.37,0.33-0.51,0.54
		C170.6,206.03,170.33,206.46,170.03,206.93z"/>
</g>
</svg>
