<?xml version="1.0" encoding="utf-8"?>
<!-- Generator: Adobe Illustrator 26.3.1, SVG Export Plug-In . SVG Version: 6.00 Build 0)  -->
<svg version="1.1" id="Layer_1" xmlns="http://www.w3.org/2000/svg" xmlns:xlink="http://www.w3.org/1999/xlink" x="0px" y="0px"
	 viewBox="0 0 414.27 237.79" style="enable-background:new 0 0 414.27 237.79;" xml:space="preserve">
<style type="text/css">
	.st0{enable-background:new    ;}
	.st1{fill:#ACB691;}
</style>
<g class="st0">
	<path class="st1" d="M50.98,18.26c-8.88,9.42-12.66,18.62-12.66,27.5c0,14.4,9.96,20.24,20.24,20.24c6.06,0,11.58-2.06,16.89-5.84
		c5.09-3.68,8.12-7.58,9.31-7.58c0.43,0,0.97,0.43,0.97,1.08c0,1.3-2.49,6.5-5.3,10.5c-4.44,6.28-14.18,16.13-28.47,16.13
		c-15.59,0-28.36-11.69-28.36-27.71c0-14.4,10.07-25.76,21.54-34.86c-13.75-1.3-24.25-3.68-29.55-3.68c-3.25,0-3.9,0.87-3.9,1.84
		c0,2.17,3.14,4.33,3.14,6.17s-2.71,4.55-4.76,6.39c-1.95,1.73-5.09,4.11-7.04,4.11C0.54,32.55,0,28.32,0,24.43
		c0-4.76,1.08-6.06,5.2-8.98C9.53,12.3,16.24,8.08,18.4,6.67c2.71-1.73,4.98-3.57,9.31-3.57c5.85,0,21.87,3.14,41.78,3.14
		c7.36,0,14.5-0.43,16.56-0.43s2.81,0.43,2.81,1.52c0,1.3-0.87,2.71-2.27,4.98c-1.84,3.03-2.81,5.3-6.39,5.74
		c-2.6,0.32-10.82,0.65-17.1,0.65C58.89,18.69,54.88,18.47,50.98,18.26z"/>
	<path class="st1" d="M140.07,46.62c0,7.69-3.14,15.8-10.39,23.81c-4.01,4.44-8.88,8.98-12.88,8.98c-2.17,0-5.41-1.3-5.41-2.81
		c0-2.71,9.63-12.02,12.56-12.02c1.3,0,2.27,1.73,3.46,1.73c2.17,0,3.68-8.12,3.68-13.53c0-10.83-6.71-18.19-14.61-18.19
		c-4.55,0-8.12,2.6-10.5,4.55v39.62c-4-0.22-7.9-0.22-11.91,0V9.06c0-4.76-4.11-3.79-4.11-5.85c0-1.08,0.97-1.41,2.06-1.41
		c2.49,0,5.41,1.52,7.79,3.68c2.06-2.71,3.57-4.22,5.41-5.52l2.27,1.52c-0.76,1.62-1.52,5.09-1.52,8.33v25.87l9.53-9.2
		c1.19-1.08,3.03-2.81,6.6-2.81C129.9,23.67,140.07,32.44,140.07,46.62z"/>
	<path class="st1" d="M180.67,66.1c-0.76,0.97-1.95,2.38-3.25,3.9l-4.87,5.63c-2.06,2.38-4.76,4.65-8.33,4.65
		c-4.76,0-9.74-3.14-13.75-6.71c-5.09-4.55-5.95-7.25-5.95-16.89c0-14.5,1.95-17.64,10.28-24.79c8.12-7.04,10.72-8.12,13.64-8.12
		c2.92,0,5.2,1.19,10.61,5.2c1.3,0.97,1.95,2.06,1.95,3.57s-0.54,2.71-1.73,3.68l-23.16,19.7c1.84,6.5,5.74,11.58,12.34,11.58
		c4.98,0,8.23-2.6,9.96-3.9C179.26,64.26,180.12,65.24,180.67,66.1z M155.34,52.68l15.26-13.31c-2.38-4.44-5.63-6.39-8.55-6.39
		c-4.44,0-6.71,4.22-7.14,10.93C154.69,46.73,154.9,49.76,155.34,52.68z"/>
</g>
<g class="st0">
	<path class="st1" d="M83.13,114.56c0,9.96-4.98,15.15-11.58,21.32s-12.66,11.04-19.92,11.04s-22.84-5.2-30.63-5.2
		c-7.58,0-14.29,2.27-17.54,3.36c-1.3-1.62-2.49-3.46-3.46-5.52c1.84-1.73,4.76-3.79,7.58-5.2c2.6-1.3,12.34-5.52,20.24-5.52
		c8.01,0,26.63,6.5,32.37,6.5c5.2,0,10.5-5.3,10.5-12.67c0-9.42-5.74-16.99-11.91-16.99c-1.95,0-3.9,0.43-5.74,1.52
		c-1.73,3.57-4.33,8.33-5.74,9.96c-3.03-0.97-7.36-3.03-10.39-4.87c-4.44,4.44-10.07,8.44-17.1,8.44c-9.2,0-16.89-5.85-16.89-16.99
		c0-7.36,3.57-14.5,13.31-23.16c8.66-7.69,15.59-11.69,25.55-11.69c6.39,0,13.75,2.38,19.81,4.87c5.09,2.06,8.44,4.01,9.74,4.01
		c1.08,0,3.03-2.17,4.65-3.79c1.08-1.08,1.95-1.95,3.03-1.95c1.19,0,2.06,0.97,2.06,2.49c0,1.62-3.14,4.22-8.33,9.42
		c-3.03,3.03-5.52,5.63-7.25,5.63c-2.27,0-4.98-1.84-9.96-3.79c-7.25-2.81-15.7-4.87-22.95-4.87c-10.72,0-18.4,6.6-18.4,15.26
		c0,7.79,5.2,13.96,14.61,13.96c3.68,0,5.63-0.43,6.82-0.97c1.52-3.46,3.25-6.6,5.09-9.42c0.54-0.87,1.3-0.97,2.17-0.65
		c2.92,1.08,5.95,2.6,8.98,4.44c4.44-3.25,10.28-5.85,15.15-5.85C74.69,97.67,83.13,104.17,83.13,114.56z"/>
	<path class="st1" d="M118.75,133.93c0,1.08-1.3,2.06-2.27,2.81l-11.26,8.33c-0.54,0.43-1.41,1.19-2.27,1.19
		c-0.87,0-1.3-0.22-1.95-0.65l-8.55-5.3v-39.08h-4.11v-2.92c3.57-5.74,10.93-15.05,13.96-18.4c0.87-0.97,2.06-2.17,3.03-2.17
		c0.76,0,1.3,0.54,1.3,1.41c0,0.97-2.6,7.58-2.81,11.91h14.94c0.22,0.65,0.43,1.73,0.43,3.46c0,2.38-0.54,4.76-1.3,6.28h-13.53v28.9
		c0,2.92,3.36,4.76,6.06,4.76c3.68,0,4.98-2.06,6.82-2.06C118.21,132.42,118.75,133.07,118.75,133.93z"/>
	<path class="st1" d="M161.61,98.65c0,1.73-1.52,3.36-3.57,5.41s-3.79,4-5.41,4c-2.81,0-5.74-6.28-8.77-6.28
		c-1.52,0-4.01,1.62-5.85,3.14v39.83c-4.01-0.22-7.9-0.22-11.91,0v-39.51l-5.09-4.55v-0.54c2.92-3.25,5.95-6.28,9.09-9.09
		c0.65-0.65,1.08-0.87,1.73-0.87c0.65,0,1.3,0.43,1.95,0.97l4.22,3.46v7.04l9.74-9.2c1.84-1.73,3.25-2.49,4.98-2.49
		c1.52,0,3.03,1.41,5.09,3.46S161.61,97.13,161.61,98.65z"/>
	<path class="st1" d="M208.38,126.68c0,0.76-0.43,1.52-1.3,2.49l-12.66,14.4c-1.62,1.84-2.92,2.71-4.22,2.71
		c-1.41,0-2.6-1.3-2.6-3.14v-8.98l-7.58,8.66c-1.84,2.06-3.68,3.46-5.3,3.46c-2.06,0-4.76-1.41-8.33-3.46
		c-3.68-2.17-6.49-3.9-6.49-6.28c0-1.95,1.08-3.14,3.25-4.87l7.79-6.39c-3.46-3.14-6.39-7.58-6.39-13.64
		c0-8.23,4.44-11.37,12.45-16.78c4.33-2.92,7.69-5.09,9.53-5.09c3.03,0,12.99,6.06,12.99,8.23v27.6c0,2.38,0.32,3.79,1.95,3.79
		c2.16,0,4.22-3.9,5.74-3.9C207.84,125.49,208.38,125.92,208.38,126.68z M174.17,122.57l13.42-11.04v-3.36
		c0-4.33-3.9-7.79-8.98-7.79c-5.85,0-11.15,4.33-11.15,11.15C167.46,116.4,169.95,119.97,174.17,122.57z M187.6,130.58v-15.69
		l-13.1,11.26c-1.08,0.87-2.06,1.62-2.06,3.03c0,0.97,1.3,2.06,3.36,3.25c2.16,1.3,3.9,2.17,5.74,2.17
		C183.16,134.58,185.43,132.63,187.6,130.58z"/>
	<path class="st1" d="M240.2,133.93c0,1.08-1.3,2.06-2.27,2.81l-11.26,8.33c-0.54,0.43-1.41,1.19-2.27,1.19s-1.3-0.22-1.95-0.65
		l-8.55-5.3v-39.08h-4.11v-2.92c3.57-5.74,10.93-15.05,13.96-18.4c0.87-0.97,2.06-2.17,3.03-2.17c0.76,0,1.3,0.54,1.3,1.41
		c0,0.97-2.6,7.58-2.81,11.91h14.94c0.22,0.65,0.43,1.73,0.43,3.46c0,2.38-0.54,4.76-1.3,6.28h-13.53v28.9
		c0,2.92,3.36,4.76,6.06,4.76c3.68,0,4.98-2.06,6.82-2.06C239.66,132.42,240.2,133.07,240.2,133.93z"/>
	<path class="st1" d="M280.47,71.8c0,1.62-1.3,3.14-3.03,4.87c-1.73,1.73-3.36,2.71-5.2,2.71c-3.03,0-7.58-3.14-10.39-3.14
		c-1.73,0-3.25,1.62-3.25,3.46c0,2.38,0.87,7.14,1.08,10.93h9.96c0.22,0.87,0.32,2.71,0.32,4.33c0,1.62-0.11,3.46-0.32,4.33h-9.96
		v45.46c-4-0.22-7.9-0.22-11.91,0v-43.3l-4.87-4.22v-2.06l4.87-4.22V86.2c0-4.01,3.03-7.14,9.63-12.56
		c6.17-4.98,9.74-6.82,13.31-6.82c1.52,0,3.25,0.33,5.74,1.3C278.85,69.09,280.47,70.18,280.47,71.8z"/>
	<path class="st1" d="M289.78,144.65c-10.39-4.22-16.78-13.53-16.78-28.36c0-10.07,2.92-13.53,11.37-20.35
		c5.2-4.11,8.01-6.17,11.69-6.17c1.73,0,3.57,0.54,5.85,1.41c10.82,4.33,16.78,13.86,16.78,28.58c0,9.74-2.6,13.31-11.47,20.24
		c-4.44,3.46-7.69,6.06-11.58,6.06C293.89,146.06,291.62,145.41,289.78,144.65z M309.05,127.11c0-12.34-8.98-27.06-20.03-27.06
		c-4.44,0-6.39,2.71-6.39,8.66c0,12.34,8.98,27.06,20.03,27.06C307.21,135.77,309.05,133.07,309.05,127.11z"/>
	<path class="st1" d="M363.06,98.65c0,1.73-1.52,3.36-3.57,5.41s-3.79,4-5.41,4c-2.81,0-5.74-6.28-8.77-6.28
		c-1.52,0-4,1.62-5.85,3.14v39.83c-4-0.22-7.9-0.22-11.91,0v-39.51l-5.09-4.55v-0.54c2.92-3.25,5.95-6.28,9.09-9.09
		c0.65-0.65,1.08-0.87,1.73-0.87s1.3,0.43,1.95,0.97l4.22,3.46v7.04l9.74-9.2c1.84-1.73,3.25-2.49,4.98-2.49
		c1.52,0,3.03,1.41,5.09,3.46S363.06,97.13,363.06,98.65z"/>
	<path class="st1" d="M414.27,132.74c0,0.65-0.54,1.3-1.3,1.95l-11.58,9.53c-1.62,1.3-3.03,2.06-4.11,2.06
		c-1.73,0-2.81-1.19-2.81-3.03v-7.9l-5.52,6.28c-1.41,1.62-4.11,4.44-7.47,4.44c-3.03,0-6.39-1.52-11.58-6.39
		c-5.41-4.98-6.28-8.01-6.28-17.32c0-12.45,1.62-16.56,9.2-24.14c6.82-6.82,9.85-8.23,12.56-8.23c2.38,0,5.74,1.84,8.44,3.57V76.35
		c0-4.76-6.17-4-6.17-6.17c0-1.08,1.08-1.41,2.17-1.41c3.25,0,6.71,1.41,9.31,3.46c2.17-3.03,3.79-4.55,5.52-5.95l2.27,1.52
		c-0.54,1.62-1.19,5.09-1.19,8.33v54.77c0,2.06,0.32,3.14,1.95,3.14c1.52,0,4-2.6,5.3-2.6
		C413.83,131.44,414.27,131.98,414.27,132.74z M393.81,132.31v-23.27c-4.44-5.85-9.53-9.53-13.64-9.53c-3.9,0-6.6,3.36-6.6,12.02
		c0,13.96,6.28,24.03,13.75,24.03C390.02,135.56,392.08,134.15,393.81,132.31z"/>
</g>
<g class="st0">
	<path class="st1" d="M23.38,172.1c0-3.14-1.08-4.65-3.14-4.65c-4,0-7.47,5.84-11.26,5.84c-2.06,0-3.68-1.3-5.74-3.14
		C1.3,168.42,0,166.79,0,165.06c0-1.84,1.08-3.25,3.25-5.2c1.95-1.84,3.9-3.03,5.95-3.03c4.11,0,7.36,5.85,11.04,5.85
		c2.17,0,3.9-2.38,5.63-4.11c3.03-3.03,5.74-5.85,8.77-8.77c3.03-2.92,6.17-5.74,9.2-8.55c1.52-1.41,3.25-2.6,5.2-2.6
		c1.84,0,3.36,1.52,3.36,3.25c0,1.3-0.43,3.36-0.43,4.33c0,0.76,0.43,1.3,1.41,2.16c5.52,4.55,21.11,17.75,27.17,22.84
		c7.14,6.06,9.63,9.2,9.63,13.53c0,6.5-8.12,17.21-12.99,22.84s-8.23,9.2-11.8,9.2c-3.57,0-12.23-5.2-15.8-5.2
		c-1.62,0-2.71,1.52-3.9,1.52c-1.08,0-1.95-0.65-1.95-1.95c0-1.41,2.6-3.79,6.06-6.28c3.14-2.27,6.17-3.57,9.42-3.57
		c3.79,0,10.28,4,12.02,4c2.27,0,9.09-8.66,9.09-12.88c0-3.79-2.92-6.39-6.82-9.85c-5.95-5.3-25.98-22.08-30.74-26.2
		c-2.27-1.95-3.36-2.71-4.44-2.71c-1.41,0-1.95,1.19-1.95,2.49v80.64c-4.33,0.22-8.66,0.22-12.99,0V172.1z M37.56,190.72
		c0-1.08,0.32-2.27,1.95-4.76c2.27-3.46,3.9-4.33,5.41-4.76c1.19-0.32,3.25-0.87,6.39-1.3c2.92-0.43,5.41-0.65,8.55-0.65
		c-0.43,1.84-1.52,4.65-3.03,7.25c-2.27,3.9-3.9,4.33-5.41,4.76c-1.19,0.32-3.14,0.87-6.28,1.3c-2.81,0.43-4.22,0.54-5.2,0.54
		C38.64,193.1,37.56,192.02,37.56,190.72z"/>
	<path class="st1" d="M119.07,201.76c0,0.76-1.19,2.27-1.84,3.14l-7.36,10.07c-0.54,0.76-1.3,1.3-2.16,1.3
		c-0.87,0-1.41-0.32-2.06-0.76l-7.79-4.87v-65.16c0-4.76-3.9-4.01-3.9-6.06c0-1.08,0.97-1.41,2.06-1.41c2.38,0,5.41,1.84,7.47,4.22
		c2.16-2.92,3.79-4.55,5.74-5.95l2.27,1.52c-0.87,2.06-1.73,6.28-1.73,10.39v50.77c0,2.27,1.19,3.46,3.14,3.46
		c2.16,0,3.57-1.95,4.87-1.95C118.64,200.46,119.07,201,119.07,201.76z"/>
	<path class="st1" d="M167.46,197.1c0,0.76-0.43,1.52-1.3,2.49l-12.66,14.4c-1.62,1.84-2.92,2.71-4.22,2.71
		c-1.41,0-2.6-1.3-2.6-3.14v-8.98l-7.58,8.66c-1.84,2.06-3.68,3.46-5.3,3.46c-2.06,0-4.76-1.41-8.33-3.46
		c-3.68-2.17-6.49-3.9-6.49-6.28c0-1.95,1.08-3.14,3.25-4.87l7.79-6.39c-3.46-3.14-6.39-7.58-6.39-13.64
		c0-8.23,4.44-11.37,12.45-16.78c4.33-2.92,7.69-5.09,9.53-5.09c3.03,0,12.99,6.06,12.99,8.23v27.6c0,2.38,0.32,3.79,1.95,3.79
		c2.16,0,4.22-3.9,5.74-3.9C166.92,195.91,167.46,196.35,167.46,197.1z M133.25,192.99l13.42-11.04v-3.36c0-4.33-3.9-7.79-8.98-7.79
		c-5.85,0-11.15,4.33-11.15,11.15C126.54,186.82,129.03,190.39,133.25,192.99z M146.67,201v-15.7l-13.1,11.26
		c-1.08,0.87-2.06,1.62-2.06,3.03c0,0.97,1.3,2.06,3.36,3.25c2.17,1.3,3.9,2.17,5.74,2.17C142.24,205.01,144.51,203.06,146.67,201z"
		/>
	<path class="st1" d="M196.03,208.58c-4.44,7.9-8.55,12.88-8.55,18.51c0,3.03,2.92,3.79,5.74,4c2.92,0.22,4.76,1.19,4.76,3.03
		c0,2.17-2.27,3.14-4.98,3.14c-4.76,0-9.53-2.49-9.53-9.31c0-4.55,1.95-7.69,4.87-12.23c-1.52-5.63-4.76-15.05-8.01-23.71
		c-1.95-5.2-4.22-10.72-7.04-15.7l-9.2-7.25v-0.54c2.17-2.6,4.33-4.98,6.71-7.14c0.76-0.76,1.19-0.97,1.95-0.97
		c0.76,0,1.3,0.54,1.95,0.97l4.11,3.03c1.08,0.76,2.27,1.84,3.25,3.25c0.87,1.19,2.06,3.25,3.36,5.74c2.6-4,5.09-7.69,8.01-11.91
		c0.54-0.76,1.3-1.3,2.17-1.3c0.65,0,1.52,0.22,2.27,0.43c5.3,1.62,10.18,3.9,15.05,6.71c1.51,0.87,2.92,1.73,3.14,2.92
		c0.22,0.97-0.54,2.27-1.3,3.68C208.27,185.95,202.53,197.1,196.03,208.58z M186.62,175.89c1.52,3.14,3.03,6.6,4.22,9.63
		c1.95,4.87,4.11,11.58,5.3,16.45c4.22-7.79,8.33-15.59,12.01-22.95c-5.95-3.9-11.26-6.28-18.29-7.79
		C188.78,172.75,187.7,174.26,186.62,175.89z"/>
	<path class="st1" d="M254.7,202.52c-0.76,0.97-1.95,2.38-3.25,3.9l-4.87,5.63c-2.06,2.38-4.76,4.65-8.33,4.65
		c-4.76,0-9.74-3.14-13.75-6.71c-5.09-4.55-5.95-7.25-5.95-16.89c0-14.5,1.95-17.64,10.28-24.79c8.12-7.04,10.72-8.12,13.64-8.12
		s5.2,1.19,10.61,5.2c1.3,0.97,1.95,2.06,1.95,3.57s-0.54,2.71-1.73,3.68l-23.16,19.7c1.84,6.5,5.74,11.58,12.34,11.58
		c4.98,0,8.23-2.6,9.96-3.9C253.3,200.68,254.16,201.65,254.7,202.52z M229.37,189.09l15.26-13.31c-2.38-4.44-5.63-6.39-8.55-6.39
		c-4.44,0-6.71,4.22-7.14,10.93C228.72,183.14,228.94,186.17,229.37,189.09z"/>
	<path class="st1" d="M297.46,169.07c0,1.73-1.52,3.36-3.57,5.41s-3.79,4-5.41,4c-2.81,0-5.74-6.28-8.77-6.28
		c-1.52,0-4,1.62-5.85,3.14v39.83c-4-0.22-7.9-0.22-11.91,0v-39.51l-5.09-4.55v-0.54c2.92-3.25,5.95-6.28,9.09-9.09
		c0.65-0.65,1.08-0.87,1.73-0.87s1.3,0.43,1.95,0.97l4.22,3.46v7.04l9.74-9.2c1.84-1.73,3.25-2.49,4.98-2.49
		c1.52,0,3.03,1.41,5.09,3.46S297.46,167.55,297.46,169.07z"/>
	<path class="st1" d="M304.72,210.42c-4.11-3.68-6.93-5.85-6.93-8.33c0-0.76,0.43-1.3,4.33-3.68c1.73-1.08,3.68-1.84,3.68-2.81
		c0-1.08-2.49-2.49-4.22-4.76c-1.62-2.17-2.81-5.3-2.81-10.72c0-8.01,2.49-11.15,10.5-15.7c5.3-3.03,8.55-4.22,11.15-4.22
		c2.17,0,4.87,0.65,10.83,3.68c4.33,2.17,8.66,4.76,8.66,7.04c0,1.41-1.62,2.71-4.11,4.76c-3.14,2.6-4.65,3.36-5.95,3.36
		c-2.06,0-4.22-2.27-7.58-5.95c-3.03-3.36-5.95-6.28-8.12-6.28c-2.06,0-3.25,2.92-3.25,8.44c0,8.44,2.6,11.37,5.09,11.37
		c1.62,0,3.25-0.76,7.04-3.14c3.46-2.17,4.76-2.6,6.06-2.6c1.84,0,4.33,1.62,6.82,3.79c2.27,2.06,4.65,4.44,4.65,10.17
		c0,6.71-2.92,9.85-8.88,14.4c-6.28,4.87-10.5,7.25-14.94,7.25C312.62,216.48,309.37,214.64,304.72,210.42z M328.21,199.81
		c0-7.79-3.25-10.93-6.6-10.93c-2.27,0-4.65,1.41-7.25,2.81s-5.74,2.81-5.74,4.33c0,1.51,2.49,3.79,5.41,6.6
		c4.66,4.33,7.04,5.85,9.31,5.85C326.04,208.47,328.21,205.98,328.21,199.81z"/>
</g>
</svg>
